G04 EAGLE Gerber RS-274X export*
G75*
%MOMM*%
%FSLAX34Y34*%
%LPD*%
%INTop Copper*%
%IPPOS*%
%AMOC8*
5,1,8,0,0,1.08239X$1,22.5*%
G01*
%ADD10R,1.400000X1.200000*%
%ADD11R,1.500000X1.300000*%
%ADD12C,1.778000*%
%ADD13C,1.900000*%
%ADD14C,1.930400*%
%ADD15C,1.016000*%
%ADD16C,0.304800*%
%ADD17C,0.906400*%
%ADD18C,0.609600*%


D10*
X37440Y75680D03*
X37440Y45680D03*
D11*
X69480Y68650D03*
X69480Y49650D03*
D12*
X498158Y188100D03*
X498158Y162700D03*
X498158Y137300D03*
D13*
X498158Y111900D03*
D12*
X369650Y268410D03*
X344250Y268410D03*
X318850Y268410D03*
X293450Y268410D03*
D14*
X260925Y276800D03*
X235525Y276800D03*
X210125Y276800D03*
X184725Y276800D03*
X159325Y276800D03*
X133925Y276800D03*
X108525Y277000D03*
X83125Y277000D03*
X57725Y277000D03*
X32325Y277000D03*
X32325Y23000D03*
X57725Y23000D03*
X83125Y23000D03*
X108525Y23000D03*
X133925Y23000D03*
X159325Y23000D03*
X184725Y23000D03*
X210125Y23000D03*
X235525Y23000D03*
X260925Y23000D03*
D15*
X235525Y240725D02*
X235525Y276800D01*
X288150Y188100D02*
X498158Y188100D01*
X288150Y188100D02*
X235525Y240725D01*
X235525Y188535D01*
X119500Y72510D02*
X107580Y72510D01*
X84720Y49650D01*
X69480Y49650D01*
X119500Y72510D02*
X235525Y188535D01*
D16*
X62450Y75680D02*
X37440Y75680D01*
X62450Y75680D02*
X69480Y68650D01*
D17*
X158750Y240030D03*
D16*
X158750Y276225D01*
X159325Y276800D01*
X114735Y54610D02*
X83125Y23000D01*
X232410Y54610D02*
X342900Y165100D01*
X342900Y166370D01*
D17*
X342900Y166370D03*
D16*
X232410Y54610D02*
X114735Y54610D01*
X32325Y40565D02*
X32325Y23000D01*
X32325Y40565D02*
X37440Y45680D01*
D18*
X369650Y268410D02*
X369650Y279840D01*
X363740Y285750D01*
X269875Y285750D01*
X260925Y276800D01*
M02*
