M48
;GenerationSoftware,Autodesk,EAGLE,9.6.2*%
;CreationDate,2021-09-20T09:36:35Z*%
FMAT,2
ICI,OFF
METRIC,TZ,000.000
T5C0.500
T4C0.800
T3C1.000
T2C1.016
T1C2.100
%
G90
M71
T1
X49316Y26650
X49316Y3350
T2
X36965Y26841
X34425Y26841
X31885Y26841
X29345Y26841
T3
X26092Y27680
X23552Y27680
X21013Y27680
X18473Y27680
X15932Y27680
X13392Y27680
X10853Y27700
X8313Y27700
X5772Y27700
X3232Y27700
X3232Y2300
X5772Y2300
X8313Y2300
X10853Y2300
X13392Y2300
X15932Y2300
X18473Y2300
X21013Y2300
X23552Y2300
X26092Y2300
T4
X49816Y18810
X49816Y16270
X49816Y13730
X49816Y11190
T5
X15875Y24003
X34290Y16637
M30