G04 EAGLE Gerber RS-274X export*
G75*
%MOMM*%
%FSLAX34Y34*%
%LPD*%
%INSilkscreen Top*%
%IPPOS*%
%AMOC8*
5,1,8,0,0,1.08239X$1,22.5*%
G01*
%ADD10C,0.177800*%
%ADD11C,0.203200*%
%ADD12C,0.127000*%
%ADD13R,10.864000X21.740000*%
%ADD14C,0.152400*%
%ADD15C,0.254000*%


D10*
X407997Y132889D02*
X403143Y132889D01*
X403035Y132891D01*
X402927Y132897D01*
X402819Y132906D01*
X402711Y132920D01*
X402604Y132937D01*
X402498Y132958D01*
X402393Y132983D01*
X402288Y133012D01*
X402185Y133044D01*
X402083Y133080D01*
X401982Y133120D01*
X401883Y133163D01*
X401785Y133210D01*
X401689Y133260D01*
X401595Y133314D01*
X401503Y133371D01*
X401413Y133431D01*
X401325Y133494D01*
X401239Y133561D01*
X401156Y133630D01*
X401076Y133702D01*
X400998Y133778D01*
X400922Y133856D01*
X400850Y133936D01*
X400781Y134019D01*
X400714Y134105D01*
X400651Y134193D01*
X400591Y134283D01*
X400534Y134375D01*
X400480Y134469D01*
X400430Y134565D01*
X400383Y134663D01*
X400340Y134762D01*
X400300Y134863D01*
X400264Y134965D01*
X400232Y135068D01*
X400203Y135173D01*
X400178Y135278D01*
X400157Y135384D01*
X400140Y135491D01*
X400126Y135599D01*
X400117Y135707D01*
X400111Y135815D01*
X400109Y135923D01*
X400111Y136031D01*
X400117Y136139D01*
X400126Y136247D01*
X400140Y136355D01*
X400157Y136462D01*
X400178Y136568D01*
X400203Y136673D01*
X400232Y136778D01*
X400264Y136881D01*
X400300Y136983D01*
X400340Y137084D01*
X400383Y137183D01*
X400430Y137281D01*
X400480Y137377D01*
X400534Y137471D01*
X400591Y137563D01*
X400651Y137653D01*
X400714Y137741D01*
X400781Y137827D01*
X400850Y137910D01*
X400922Y137990D01*
X400998Y138068D01*
X401076Y138144D01*
X401156Y138216D01*
X401239Y138285D01*
X401325Y138352D01*
X401413Y138415D01*
X401503Y138475D01*
X401595Y138532D01*
X401689Y138586D01*
X401785Y138636D01*
X401883Y138683D01*
X401982Y138726D01*
X402083Y138766D01*
X402185Y138802D01*
X402288Y138834D01*
X402393Y138863D01*
X402498Y138888D01*
X402604Y138909D01*
X402711Y138926D01*
X402819Y138940D01*
X402927Y138949D01*
X403035Y138955D01*
X403143Y138957D01*
X407997Y138957D01*
X408105Y138955D01*
X408213Y138949D01*
X408321Y138940D01*
X408429Y138926D01*
X408536Y138909D01*
X408642Y138888D01*
X408747Y138863D01*
X408852Y138834D01*
X408955Y138802D01*
X409057Y138766D01*
X409158Y138726D01*
X409257Y138683D01*
X409355Y138636D01*
X409451Y138586D01*
X409545Y138532D01*
X409637Y138475D01*
X409727Y138415D01*
X409815Y138352D01*
X409901Y138285D01*
X409984Y138216D01*
X410064Y138144D01*
X410142Y138068D01*
X410218Y137990D01*
X410290Y137910D01*
X410359Y137827D01*
X410426Y137741D01*
X410489Y137653D01*
X410549Y137563D01*
X410606Y137471D01*
X410660Y137377D01*
X410710Y137281D01*
X410757Y137183D01*
X410800Y137084D01*
X410840Y136983D01*
X410876Y136881D01*
X410908Y136778D01*
X410937Y136673D01*
X410962Y136568D01*
X410983Y136462D01*
X411000Y136355D01*
X411014Y136247D01*
X411023Y136139D01*
X411029Y136031D01*
X411031Y135923D01*
X411029Y135815D01*
X411023Y135707D01*
X411014Y135599D01*
X411000Y135491D01*
X410983Y135384D01*
X410962Y135278D01*
X410937Y135173D01*
X410908Y135068D01*
X410876Y134965D01*
X410840Y134863D01*
X410800Y134762D01*
X410757Y134663D01*
X410710Y134565D01*
X410660Y134469D01*
X410606Y134375D01*
X410549Y134283D01*
X410489Y134193D01*
X410426Y134105D01*
X410359Y134019D01*
X410290Y133936D01*
X410218Y133856D01*
X410142Y133778D01*
X410064Y133702D01*
X409984Y133630D01*
X409901Y133561D01*
X409815Y133494D01*
X409727Y133431D01*
X409637Y133371D01*
X409545Y133314D01*
X409451Y133260D01*
X409355Y133210D01*
X409257Y133163D01*
X409158Y133120D01*
X409057Y133080D01*
X408955Y133044D01*
X408852Y133012D01*
X408747Y132983D01*
X408642Y132958D01*
X408536Y132937D01*
X408429Y132920D01*
X408321Y132906D01*
X408213Y132897D01*
X408105Y132891D01*
X407997Y132889D01*
X411031Y144731D02*
X400109Y144731D01*
X411031Y144731D02*
X411031Y149585D01*
X411031Y154637D02*
X411031Y159491D01*
X411031Y154637D02*
X400109Y154637D01*
X400109Y159491D01*
X404963Y158278D02*
X404963Y154637D01*
X400109Y164512D02*
X411031Y164512D01*
X400109Y164512D02*
X400109Y167546D01*
X400111Y167654D01*
X400117Y167762D01*
X400126Y167870D01*
X400140Y167978D01*
X400157Y168085D01*
X400178Y168191D01*
X400203Y168296D01*
X400232Y168401D01*
X400264Y168504D01*
X400300Y168606D01*
X400340Y168707D01*
X400383Y168806D01*
X400430Y168904D01*
X400480Y169000D01*
X400534Y169094D01*
X400591Y169186D01*
X400651Y169276D01*
X400714Y169364D01*
X400781Y169450D01*
X400850Y169533D01*
X400922Y169613D01*
X400998Y169691D01*
X401076Y169767D01*
X401156Y169839D01*
X401239Y169908D01*
X401325Y169975D01*
X401413Y170038D01*
X401503Y170098D01*
X401595Y170155D01*
X401689Y170209D01*
X401785Y170259D01*
X401883Y170306D01*
X401982Y170349D01*
X402083Y170389D01*
X402185Y170425D01*
X402288Y170457D01*
X402393Y170486D01*
X402498Y170511D01*
X402604Y170532D01*
X402711Y170549D01*
X402819Y170563D01*
X402927Y170572D01*
X403035Y170578D01*
X403143Y170580D01*
X407997Y170580D01*
X408105Y170578D01*
X408213Y170572D01*
X408321Y170563D01*
X408429Y170549D01*
X408536Y170532D01*
X408642Y170511D01*
X408747Y170486D01*
X408852Y170457D01*
X408955Y170425D01*
X409057Y170389D01*
X409158Y170349D01*
X409257Y170306D01*
X409355Y170259D01*
X409451Y170209D01*
X409545Y170155D01*
X409637Y170098D01*
X409727Y170038D01*
X409815Y169975D01*
X409901Y169908D01*
X409984Y169839D01*
X410064Y169767D01*
X410142Y169691D01*
X410218Y169613D01*
X410290Y169533D01*
X410359Y169450D01*
X410426Y169364D01*
X410489Y169276D01*
X410549Y169186D01*
X410606Y169094D01*
X410660Y169000D01*
X410710Y168904D01*
X410757Y168806D01*
X410800Y168707D01*
X410840Y168606D01*
X410876Y168504D01*
X410908Y168401D01*
X410937Y168296D01*
X410962Y168191D01*
X410983Y168085D01*
X411000Y167978D01*
X411014Y167870D01*
X411023Y167762D01*
X411029Y167654D01*
X411031Y167546D01*
X411031Y164512D01*
D11*
X44265Y36680D02*
X30615Y36680D01*
D10*
X11281Y88049D02*
X11281Y98971D01*
X11281Y88049D02*
X16136Y88049D01*
X21187Y88049D02*
X26042Y88049D01*
X21187Y88049D02*
X21187Y98971D01*
X26042Y98971D01*
X24828Y94117D02*
X21187Y94117D01*
X31062Y98971D02*
X31062Y88049D01*
X31062Y98971D02*
X34096Y98971D01*
X34204Y98969D01*
X34312Y98963D01*
X34420Y98954D01*
X34528Y98940D01*
X34635Y98923D01*
X34741Y98902D01*
X34846Y98877D01*
X34951Y98848D01*
X35054Y98816D01*
X35156Y98780D01*
X35257Y98740D01*
X35356Y98697D01*
X35454Y98650D01*
X35550Y98600D01*
X35644Y98546D01*
X35736Y98489D01*
X35826Y98429D01*
X35914Y98366D01*
X36000Y98299D01*
X36083Y98230D01*
X36163Y98158D01*
X36241Y98082D01*
X36317Y98004D01*
X36389Y97924D01*
X36458Y97841D01*
X36525Y97755D01*
X36588Y97667D01*
X36648Y97577D01*
X36705Y97485D01*
X36759Y97391D01*
X36809Y97295D01*
X36856Y97197D01*
X36899Y97098D01*
X36939Y96997D01*
X36975Y96895D01*
X37007Y96792D01*
X37036Y96687D01*
X37061Y96582D01*
X37082Y96476D01*
X37099Y96369D01*
X37113Y96261D01*
X37122Y96153D01*
X37128Y96045D01*
X37130Y95937D01*
X37130Y91083D01*
X37128Y90975D01*
X37122Y90867D01*
X37113Y90759D01*
X37099Y90651D01*
X37082Y90544D01*
X37061Y90438D01*
X37036Y90333D01*
X37007Y90228D01*
X36975Y90125D01*
X36939Y90023D01*
X36899Y89922D01*
X36856Y89823D01*
X36809Y89725D01*
X36759Y89629D01*
X36705Y89535D01*
X36648Y89443D01*
X36588Y89353D01*
X36525Y89265D01*
X36458Y89179D01*
X36389Y89096D01*
X36317Y89016D01*
X36241Y88938D01*
X36163Y88862D01*
X36083Y88790D01*
X36000Y88721D01*
X35914Y88654D01*
X35826Y88591D01*
X35736Y88531D01*
X35644Y88474D01*
X35550Y88420D01*
X35454Y88370D01*
X35356Y88323D01*
X35257Y88280D01*
X35156Y88240D01*
X35054Y88204D01*
X34951Y88172D01*
X34846Y88143D01*
X34741Y88118D01*
X34635Y88097D01*
X34528Y88080D01*
X34420Y88066D01*
X34312Y88057D01*
X34204Y88051D01*
X34096Y88049D01*
X31062Y88049D01*
X42873Y96544D02*
X45907Y98971D01*
X45907Y88049D01*
X42873Y88049D02*
X48941Y88049D01*
X59915Y88889D02*
X59915Y99811D01*
X62948Y99811D01*
X63056Y99809D01*
X63164Y99803D01*
X63272Y99794D01*
X63380Y99780D01*
X63487Y99763D01*
X63593Y99742D01*
X63698Y99717D01*
X63803Y99688D01*
X63906Y99656D01*
X64008Y99620D01*
X64109Y99580D01*
X64208Y99537D01*
X64306Y99490D01*
X64402Y99440D01*
X64496Y99386D01*
X64588Y99329D01*
X64678Y99269D01*
X64766Y99206D01*
X64852Y99139D01*
X64935Y99070D01*
X65015Y98998D01*
X65093Y98922D01*
X65169Y98844D01*
X65241Y98764D01*
X65310Y98681D01*
X65377Y98595D01*
X65440Y98507D01*
X65500Y98417D01*
X65557Y98325D01*
X65611Y98231D01*
X65661Y98135D01*
X65708Y98037D01*
X65751Y97938D01*
X65791Y97837D01*
X65827Y97735D01*
X65859Y97632D01*
X65888Y97527D01*
X65913Y97422D01*
X65934Y97316D01*
X65951Y97209D01*
X65965Y97101D01*
X65974Y96993D01*
X65980Y96885D01*
X65982Y96777D01*
X65980Y96669D01*
X65974Y96561D01*
X65965Y96453D01*
X65951Y96345D01*
X65934Y96238D01*
X65913Y96132D01*
X65888Y96027D01*
X65859Y95922D01*
X65827Y95819D01*
X65791Y95717D01*
X65751Y95616D01*
X65708Y95517D01*
X65661Y95419D01*
X65611Y95323D01*
X65557Y95229D01*
X65500Y95137D01*
X65440Y95047D01*
X65377Y94959D01*
X65310Y94873D01*
X65241Y94790D01*
X65169Y94710D01*
X65093Y94632D01*
X65015Y94556D01*
X64935Y94484D01*
X64852Y94415D01*
X64766Y94348D01*
X64678Y94285D01*
X64588Y94225D01*
X64496Y94168D01*
X64402Y94114D01*
X64306Y94064D01*
X64208Y94017D01*
X64109Y93974D01*
X64008Y93934D01*
X63906Y93898D01*
X63803Y93866D01*
X63698Y93837D01*
X63593Y93812D01*
X63487Y93791D01*
X63380Y93774D01*
X63272Y93760D01*
X63164Y93751D01*
X63056Y93745D01*
X62948Y93743D01*
X59915Y93743D01*
X63555Y93743D02*
X65982Y88889D01*
X71243Y97384D02*
X74277Y99811D01*
X74277Y88889D01*
X71243Y88889D02*
X77311Y88889D01*
D12*
X235158Y286500D02*
X513158Y286500D01*
X235158Y286500D02*
X235158Y13500D01*
X513158Y13500D01*
X513158Y286500D01*
D13*
X395138Y150000D03*
D14*
X459458Y268870D02*
X459458Y31130D01*
X330818Y31130D01*
X330818Y268870D01*
X459458Y268870D01*
X470458Y264300D02*
X470458Y283500D01*
X462358Y283500D01*
X322658Y283500D02*
X277858Y283500D01*
X277858Y264300D01*
X277858Y35700D02*
X277858Y16500D01*
X322658Y16500D01*
X462358Y16500D02*
X470458Y16500D01*
X470458Y35700D01*
D11*
X299800Y255710D02*
X287100Y255710D01*
X280750Y262060D01*
X280750Y274760D02*
X287100Y281110D01*
X325200Y255710D02*
X331550Y262060D01*
X325200Y255710D02*
X312500Y255710D01*
X306150Y262060D01*
X306150Y274760D02*
X312500Y281110D01*
X325200Y281110D01*
X331550Y274760D01*
X306150Y262060D02*
X299800Y255710D01*
X306150Y274760D02*
X299800Y281110D01*
X287100Y281110D01*
X363300Y255710D02*
X376000Y255710D01*
X363300Y255710D02*
X356950Y262060D01*
X356950Y274760D02*
X363300Y281110D01*
X356950Y262060D02*
X350600Y255710D01*
X337900Y255710D01*
X331550Y262060D01*
X331550Y274760D02*
X337900Y281110D01*
X350600Y281110D01*
X356950Y274760D01*
X382350Y274760D02*
X382350Y262060D01*
X376000Y255710D01*
X382350Y274760D02*
X376000Y281110D01*
X363300Y281110D01*
X280750Y274760D02*
X280750Y262060D01*
D12*
X238450Y243608D02*
X238450Y241138D01*
X238450Y243608D02*
X238448Y243706D01*
X238442Y243804D01*
X238432Y243902D01*
X238419Y243999D01*
X238401Y244096D01*
X238380Y244192D01*
X238355Y244286D01*
X238326Y244380D01*
X238294Y244473D01*
X238257Y244564D01*
X238218Y244654D01*
X238174Y244742D01*
X238127Y244828D01*
X238077Y244913D01*
X238024Y244995D01*
X237967Y245075D01*
X237907Y245153D01*
X237844Y245228D01*
X237778Y245301D01*
X237709Y245371D01*
X237638Y245438D01*
X237564Y245503D01*
X237487Y245564D01*
X237408Y245623D01*
X237327Y245678D01*
X237244Y245730D01*
X237158Y245778D01*
X237071Y245823D01*
X236982Y245865D01*
X236892Y245903D01*
X236800Y245937D01*
X236707Y245968D01*
X236612Y245995D01*
X236517Y246018D01*
X236420Y246038D01*
X236324Y246053D01*
X236226Y246065D01*
X236128Y246073D01*
X236030Y246077D01*
X235932Y246077D01*
X235834Y246073D01*
X235736Y246065D01*
X235638Y246053D01*
X235542Y246038D01*
X235445Y246018D01*
X235350Y245995D01*
X235255Y245968D01*
X235162Y245937D01*
X235070Y245903D01*
X234980Y245865D01*
X234891Y245823D01*
X234804Y245778D01*
X234718Y245730D01*
X234635Y245678D01*
X234554Y245623D01*
X234475Y245564D01*
X234398Y245503D01*
X234324Y245438D01*
X234253Y245371D01*
X234184Y245301D01*
X234118Y245228D01*
X234055Y245153D01*
X233995Y245075D01*
X233938Y244995D01*
X233885Y244913D01*
X233835Y244828D01*
X233788Y244742D01*
X233744Y244654D01*
X233705Y244564D01*
X233668Y244473D01*
X233636Y244380D01*
X233607Y244286D01*
X233582Y244192D01*
X233561Y244096D01*
X233543Y243999D01*
X233530Y243902D01*
X233520Y243804D01*
X233514Y243706D01*
X233512Y243608D01*
X229560Y244101D02*
X229560Y241138D01*
X229560Y244101D02*
X229562Y244188D01*
X229568Y244276D01*
X229577Y244363D01*
X229591Y244449D01*
X229608Y244535D01*
X229629Y244619D01*
X229654Y244703D01*
X229683Y244786D01*
X229715Y244867D01*
X229750Y244947D01*
X229789Y245025D01*
X229832Y245102D01*
X229878Y245176D01*
X229927Y245248D01*
X229979Y245318D01*
X230035Y245386D01*
X230093Y245451D01*
X230154Y245514D01*
X230218Y245573D01*
X230285Y245630D01*
X230353Y245684D01*
X230425Y245735D01*
X230498Y245782D01*
X230573Y245827D01*
X230651Y245868D01*
X230730Y245905D01*
X230810Y245939D01*
X230892Y245969D01*
X230975Y245996D01*
X231060Y246019D01*
X231145Y246038D01*
X231231Y246053D01*
X231318Y246065D01*
X231405Y246073D01*
X231492Y246077D01*
X231580Y246077D01*
X231667Y246073D01*
X231754Y246065D01*
X231841Y246053D01*
X231927Y246038D01*
X232012Y246019D01*
X232097Y245996D01*
X232180Y245969D01*
X232262Y245939D01*
X232342Y245905D01*
X232421Y245868D01*
X232499Y245827D01*
X232574Y245782D01*
X232647Y245735D01*
X232719Y245684D01*
X232787Y245630D01*
X232854Y245573D01*
X232918Y245514D01*
X232979Y245451D01*
X233037Y245386D01*
X233093Y245318D01*
X233145Y245248D01*
X233194Y245176D01*
X233240Y245102D01*
X233283Y245025D01*
X233322Y244947D01*
X233357Y244867D01*
X233389Y244786D01*
X233418Y244703D01*
X233443Y244619D01*
X233464Y244535D01*
X233481Y244449D01*
X233495Y244363D01*
X233504Y244276D01*
X233510Y244188D01*
X233512Y244101D01*
X233511Y244101D02*
X233511Y242126D01*
X229560Y249788D02*
X238450Y252752D01*
X229560Y255715D01*
X238450Y259426D02*
X238450Y261896D01*
X238448Y261994D01*
X238442Y262092D01*
X238432Y262190D01*
X238419Y262287D01*
X238401Y262384D01*
X238380Y262480D01*
X238355Y262574D01*
X238326Y262668D01*
X238294Y262761D01*
X238257Y262852D01*
X238218Y262942D01*
X238174Y263030D01*
X238127Y263116D01*
X238077Y263201D01*
X238024Y263283D01*
X237967Y263363D01*
X237907Y263441D01*
X237844Y263516D01*
X237778Y263589D01*
X237709Y263659D01*
X237638Y263726D01*
X237564Y263791D01*
X237487Y263852D01*
X237408Y263911D01*
X237327Y263966D01*
X237244Y264018D01*
X237158Y264066D01*
X237071Y264111D01*
X236982Y264153D01*
X236892Y264191D01*
X236800Y264225D01*
X236707Y264256D01*
X236612Y264283D01*
X236517Y264306D01*
X236420Y264326D01*
X236324Y264341D01*
X236226Y264353D01*
X236128Y264361D01*
X236030Y264365D01*
X235932Y264365D01*
X235834Y264361D01*
X235736Y264353D01*
X235638Y264341D01*
X235542Y264326D01*
X235445Y264306D01*
X235350Y264283D01*
X235255Y264256D01*
X235162Y264225D01*
X235070Y264191D01*
X234980Y264153D01*
X234891Y264111D01*
X234804Y264066D01*
X234718Y264018D01*
X234635Y263966D01*
X234554Y263911D01*
X234475Y263852D01*
X234398Y263791D01*
X234324Y263726D01*
X234253Y263659D01*
X234184Y263589D01*
X234118Y263516D01*
X234055Y263441D01*
X233995Y263363D01*
X233938Y263283D01*
X233885Y263201D01*
X233835Y263116D01*
X233788Y263030D01*
X233744Y262942D01*
X233705Y262852D01*
X233668Y262761D01*
X233636Y262668D01*
X233607Y262574D01*
X233582Y262480D01*
X233561Y262384D01*
X233543Y262287D01*
X233530Y262190D01*
X233520Y262092D01*
X233514Y261994D01*
X233512Y261896D01*
X229560Y262389D02*
X229560Y259426D01*
X229560Y262389D02*
X229562Y262476D01*
X229568Y262564D01*
X229577Y262651D01*
X229591Y262737D01*
X229608Y262823D01*
X229629Y262907D01*
X229654Y262991D01*
X229683Y263074D01*
X229715Y263155D01*
X229750Y263235D01*
X229789Y263313D01*
X229832Y263390D01*
X229878Y263464D01*
X229927Y263536D01*
X229979Y263606D01*
X230035Y263674D01*
X230093Y263739D01*
X230154Y263802D01*
X230218Y263861D01*
X230285Y263918D01*
X230353Y263972D01*
X230425Y264023D01*
X230498Y264070D01*
X230573Y264115D01*
X230651Y264156D01*
X230730Y264193D01*
X230810Y264227D01*
X230892Y264257D01*
X230975Y264284D01*
X231060Y264307D01*
X231145Y264326D01*
X231231Y264341D01*
X231318Y264353D01*
X231405Y264361D01*
X231492Y264365D01*
X231580Y264365D01*
X231667Y264361D01*
X231754Y264353D01*
X231841Y264341D01*
X231927Y264326D01*
X232012Y264307D01*
X232097Y264284D01*
X232180Y264257D01*
X232262Y264227D01*
X232342Y264193D01*
X232421Y264156D01*
X232499Y264115D01*
X232574Y264070D01*
X232647Y264023D01*
X232719Y263972D01*
X232787Y263918D01*
X232854Y263861D01*
X232918Y263802D01*
X232979Y263739D01*
X233037Y263674D01*
X233093Y263606D01*
X233145Y263536D01*
X233194Y263464D01*
X233240Y263390D01*
X233283Y263313D01*
X233322Y263235D01*
X233357Y263155D01*
X233389Y263074D01*
X233418Y262991D01*
X233443Y262907D01*
X233464Y262823D01*
X233481Y262737D01*
X233495Y262651D01*
X233504Y262564D01*
X233510Y262476D01*
X233512Y262389D01*
X233511Y262389D02*
X233511Y260414D01*
X187650Y255476D02*
X187650Y251525D01*
X178760Y251525D01*
X178760Y255476D01*
X182711Y254488D02*
X182711Y251525D01*
X178760Y259426D02*
X187650Y259426D01*
X187650Y264365D02*
X178760Y259426D01*
X178760Y264365D02*
X187650Y264365D01*
X187650Y41192D02*
X178760Y41192D01*
X187650Y40205D02*
X187650Y42180D01*
X178760Y42180D02*
X178760Y40205D01*
X181229Y46038D02*
X185181Y46038D01*
X181229Y46039D02*
X181131Y46041D01*
X181033Y46047D01*
X180935Y46057D01*
X180838Y46070D01*
X180741Y46088D01*
X180645Y46109D01*
X180551Y46134D01*
X180457Y46163D01*
X180364Y46195D01*
X180273Y46232D01*
X180183Y46271D01*
X180095Y46315D01*
X180009Y46362D01*
X179924Y46412D01*
X179842Y46465D01*
X179762Y46522D01*
X179684Y46582D01*
X179609Y46645D01*
X179536Y46711D01*
X179466Y46780D01*
X179399Y46851D01*
X179334Y46925D01*
X179273Y47002D01*
X179214Y47081D01*
X179159Y47162D01*
X179107Y47245D01*
X179059Y47331D01*
X179014Y47418D01*
X178972Y47507D01*
X178934Y47597D01*
X178900Y47689D01*
X178869Y47782D01*
X178842Y47877D01*
X178819Y47972D01*
X178799Y48069D01*
X178784Y48165D01*
X178772Y48263D01*
X178764Y48361D01*
X178760Y48459D01*
X178760Y48557D01*
X178764Y48655D01*
X178772Y48753D01*
X178784Y48851D01*
X178799Y48947D01*
X178819Y49044D01*
X178842Y49139D01*
X178869Y49234D01*
X178900Y49327D01*
X178934Y49419D01*
X178972Y49509D01*
X179014Y49598D01*
X179059Y49685D01*
X179107Y49771D01*
X179159Y49854D01*
X179214Y49935D01*
X179273Y50014D01*
X179334Y50091D01*
X179399Y50165D01*
X179466Y50236D01*
X179536Y50305D01*
X179609Y50371D01*
X179684Y50434D01*
X179762Y50494D01*
X179842Y50551D01*
X179924Y50604D01*
X180009Y50654D01*
X180095Y50701D01*
X180183Y50745D01*
X180273Y50784D01*
X180364Y50821D01*
X180457Y50853D01*
X180551Y50882D01*
X180645Y50907D01*
X180741Y50928D01*
X180838Y50946D01*
X180935Y50959D01*
X181033Y50969D01*
X181131Y50975D01*
X181229Y50977D01*
X185181Y50977D01*
X185279Y50975D01*
X185377Y50969D01*
X185475Y50959D01*
X185572Y50946D01*
X185669Y50928D01*
X185765Y50907D01*
X185859Y50882D01*
X185953Y50853D01*
X186046Y50821D01*
X186137Y50784D01*
X186227Y50745D01*
X186315Y50701D01*
X186401Y50654D01*
X186486Y50604D01*
X186568Y50551D01*
X186648Y50494D01*
X186726Y50434D01*
X186801Y50371D01*
X186874Y50305D01*
X186944Y50236D01*
X187011Y50165D01*
X187076Y50091D01*
X187137Y50014D01*
X187196Y49935D01*
X187251Y49854D01*
X187303Y49771D01*
X187351Y49685D01*
X187396Y49598D01*
X187438Y49509D01*
X187476Y49419D01*
X187510Y49327D01*
X187541Y49234D01*
X187568Y49139D01*
X187591Y49044D01*
X187611Y48947D01*
X187626Y48851D01*
X187638Y48753D01*
X187646Y48655D01*
X187650Y48557D01*
X187650Y48459D01*
X187646Y48361D01*
X187638Y48263D01*
X187626Y48165D01*
X187611Y48069D01*
X187591Y47972D01*
X187568Y47877D01*
X187541Y47782D01*
X187510Y47689D01*
X187476Y47597D01*
X187438Y47507D01*
X187396Y47418D01*
X187351Y47331D01*
X187303Y47245D01*
X187251Y47162D01*
X187196Y47081D01*
X187137Y47002D01*
X187076Y46925D01*
X187011Y46851D01*
X186944Y46780D01*
X186874Y46711D01*
X186801Y46645D01*
X186726Y46582D01*
X186648Y46522D01*
X186568Y46465D01*
X186486Y46412D01*
X186401Y46362D01*
X186315Y46315D01*
X186227Y46271D01*
X186137Y46232D01*
X186046Y46195D01*
X185953Y46163D01*
X185859Y46134D01*
X185765Y46109D01*
X185669Y46088D01*
X185572Y46070D01*
X185475Y46057D01*
X185377Y46047D01*
X185279Y46041D01*
X185181Y46039D01*
X187650Y55182D02*
X187650Y57652D01*
X187648Y57750D01*
X187642Y57848D01*
X187632Y57946D01*
X187619Y58043D01*
X187601Y58140D01*
X187580Y58236D01*
X187555Y58330D01*
X187526Y58424D01*
X187494Y58517D01*
X187457Y58608D01*
X187418Y58698D01*
X187374Y58786D01*
X187327Y58872D01*
X187277Y58957D01*
X187224Y59039D01*
X187167Y59119D01*
X187107Y59197D01*
X187044Y59272D01*
X186978Y59345D01*
X186909Y59415D01*
X186838Y59482D01*
X186764Y59547D01*
X186687Y59608D01*
X186608Y59667D01*
X186527Y59722D01*
X186444Y59774D01*
X186358Y59822D01*
X186271Y59867D01*
X186182Y59909D01*
X186092Y59947D01*
X186000Y59981D01*
X185907Y60012D01*
X185812Y60039D01*
X185717Y60062D01*
X185620Y60082D01*
X185524Y60097D01*
X185426Y60109D01*
X185328Y60117D01*
X185230Y60121D01*
X185132Y60121D01*
X185034Y60117D01*
X184936Y60109D01*
X184838Y60097D01*
X184742Y60082D01*
X184645Y60062D01*
X184550Y60039D01*
X184455Y60012D01*
X184362Y59981D01*
X184270Y59947D01*
X184180Y59909D01*
X184091Y59867D01*
X184004Y59822D01*
X183918Y59774D01*
X183835Y59722D01*
X183754Y59667D01*
X183675Y59608D01*
X183598Y59547D01*
X183524Y59482D01*
X183453Y59415D01*
X183384Y59345D01*
X183318Y59272D01*
X183255Y59197D01*
X183195Y59119D01*
X183138Y59039D01*
X183085Y58957D01*
X183035Y58872D01*
X182988Y58786D01*
X182944Y58698D01*
X182905Y58608D01*
X182868Y58517D01*
X182836Y58424D01*
X182807Y58330D01*
X182782Y58236D01*
X182761Y58140D01*
X182743Y58043D01*
X182730Y57946D01*
X182720Y57848D01*
X182714Y57750D01*
X182712Y57652D01*
X178760Y58145D02*
X178760Y55182D01*
X178760Y58145D02*
X178762Y58232D01*
X178768Y58320D01*
X178777Y58407D01*
X178791Y58493D01*
X178808Y58579D01*
X178829Y58663D01*
X178854Y58747D01*
X178883Y58830D01*
X178915Y58911D01*
X178950Y58991D01*
X178989Y59069D01*
X179032Y59146D01*
X179078Y59220D01*
X179127Y59292D01*
X179179Y59362D01*
X179235Y59430D01*
X179293Y59495D01*
X179354Y59558D01*
X179418Y59617D01*
X179485Y59674D01*
X179553Y59728D01*
X179625Y59779D01*
X179698Y59826D01*
X179773Y59871D01*
X179851Y59912D01*
X179930Y59949D01*
X180010Y59983D01*
X180092Y60013D01*
X180175Y60040D01*
X180260Y60063D01*
X180345Y60082D01*
X180431Y60097D01*
X180518Y60109D01*
X180605Y60117D01*
X180692Y60121D01*
X180780Y60121D01*
X180867Y60117D01*
X180954Y60109D01*
X181041Y60097D01*
X181127Y60082D01*
X181212Y60063D01*
X181297Y60040D01*
X181380Y60013D01*
X181462Y59983D01*
X181542Y59949D01*
X181621Y59912D01*
X181699Y59871D01*
X181774Y59826D01*
X181847Y59779D01*
X181919Y59728D01*
X181987Y59674D01*
X182054Y59617D01*
X182118Y59558D01*
X182179Y59495D01*
X182237Y59430D01*
X182293Y59362D01*
X182345Y59292D01*
X182394Y59220D01*
X182440Y59146D01*
X182483Y59069D01*
X182522Y58991D01*
X182557Y58911D01*
X182589Y58830D01*
X182618Y58747D01*
X182643Y58663D01*
X182664Y58579D01*
X182681Y58493D01*
X182695Y58407D01*
X182704Y58320D01*
X182710Y58232D01*
X182712Y58145D01*
X182711Y58145D02*
X182711Y56170D01*
X185674Y64326D02*
X178760Y66302D01*
X185674Y64326D02*
X185674Y69265D01*
X183699Y67783D02*
X187650Y67783D01*
X204160Y41192D02*
X213050Y41192D01*
X213050Y40205D02*
X213050Y42180D01*
X204160Y42180D02*
X204160Y40205D01*
X206629Y46038D02*
X210581Y46038D01*
X206629Y46039D02*
X206531Y46041D01*
X206433Y46047D01*
X206335Y46057D01*
X206238Y46070D01*
X206141Y46088D01*
X206045Y46109D01*
X205951Y46134D01*
X205857Y46163D01*
X205764Y46195D01*
X205673Y46232D01*
X205583Y46271D01*
X205495Y46315D01*
X205409Y46362D01*
X205324Y46412D01*
X205242Y46465D01*
X205162Y46522D01*
X205084Y46582D01*
X205009Y46645D01*
X204936Y46711D01*
X204866Y46780D01*
X204799Y46851D01*
X204734Y46925D01*
X204673Y47002D01*
X204614Y47081D01*
X204559Y47162D01*
X204507Y47245D01*
X204459Y47331D01*
X204414Y47418D01*
X204372Y47507D01*
X204334Y47597D01*
X204300Y47689D01*
X204269Y47782D01*
X204242Y47877D01*
X204219Y47972D01*
X204199Y48069D01*
X204184Y48165D01*
X204172Y48263D01*
X204164Y48361D01*
X204160Y48459D01*
X204160Y48557D01*
X204164Y48655D01*
X204172Y48753D01*
X204184Y48851D01*
X204199Y48947D01*
X204219Y49044D01*
X204242Y49139D01*
X204269Y49234D01*
X204300Y49327D01*
X204334Y49419D01*
X204372Y49509D01*
X204414Y49598D01*
X204459Y49685D01*
X204507Y49771D01*
X204559Y49854D01*
X204614Y49935D01*
X204673Y50014D01*
X204734Y50091D01*
X204799Y50165D01*
X204866Y50236D01*
X204936Y50305D01*
X205009Y50371D01*
X205084Y50434D01*
X205162Y50494D01*
X205242Y50551D01*
X205324Y50604D01*
X205409Y50654D01*
X205495Y50701D01*
X205583Y50745D01*
X205673Y50784D01*
X205764Y50821D01*
X205857Y50853D01*
X205951Y50882D01*
X206045Y50907D01*
X206141Y50928D01*
X206238Y50946D01*
X206335Y50959D01*
X206433Y50969D01*
X206531Y50975D01*
X206629Y50977D01*
X210581Y50977D01*
X210679Y50975D01*
X210777Y50969D01*
X210875Y50959D01*
X210972Y50946D01*
X211069Y50928D01*
X211165Y50907D01*
X211259Y50882D01*
X211353Y50853D01*
X211446Y50821D01*
X211537Y50784D01*
X211627Y50745D01*
X211715Y50701D01*
X211801Y50654D01*
X211886Y50604D01*
X211968Y50551D01*
X212048Y50494D01*
X212126Y50434D01*
X212201Y50371D01*
X212274Y50305D01*
X212344Y50236D01*
X212411Y50165D01*
X212476Y50091D01*
X212537Y50014D01*
X212596Y49935D01*
X212651Y49854D01*
X212703Y49771D01*
X212751Y49685D01*
X212796Y49598D01*
X212838Y49509D01*
X212876Y49419D01*
X212910Y49327D01*
X212941Y49234D01*
X212968Y49139D01*
X212991Y49044D01*
X213011Y48947D01*
X213026Y48851D01*
X213038Y48753D01*
X213046Y48655D01*
X213050Y48557D01*
X213050Y48459D01*
X213046Y48361D01*
X213038Y48263D01*
X213026Y48165D01*
X213011Y48069D01*
X212991Y47972D01*
X212968Y47877D01*
X212941Y47782D01*
X212910Y47689D01*
X212876Y47597D01*
X212838Y47507D01*
X212796Y47418D01*
X212751Y47331D01*
X212703Y47245D01*
X212651Y47162D01*
X212596Y47081D01*
X212537Y47002D01*
X212476Y46925D01*
X212411Y46851D01*
X212344Y46780D01*
X212274Y46711D01*
X212201Y46645D01*
X212126Y46582D01*
X212048Y46522D01*
X211968Y46465D01*
X211886Y46412D01*
X211801Y46362D01*
X211715Y46315D01*
X211627Y46271D01*
X211537Y46232D01*
X211446Y46195D01*
X211353Y46163D01*
X211259Y46134D01*
X211165Y46109D01*
X211069Y46088D01*
X210972Y46070D01*
X210875Y46057D01*
X210777Y46047D01*
X210679Y46041D01*
X210581Y46039D01*
X213050Y55182D02*
X213050Y57652D01*
X213048Y57750D01*
X213042Y57848D01*
X213032Y57946D01*
X213019Y58043D01*
X213001Y58140D01*
X212980Y58236D01*
X212955Y58330D01*
X212926Y58424D01*
X212894Y58517D01*
X212857Y58608D01*
X212818Y58698D01*
X212774Y58786D01*
X212727Y58872D01*
X212677Y58957D01*
X212624Y59039D01*
X212567Y59119D01*
X212507Y59197D01*
X212444Y59272D01*
X212378Y59345D01*
X212309Y59415D01*
X212238Y59482D01*
X212164Y59547D01*
X212087Y59608D01*
X212008Y59667D01*
X211927Y59722D01*
X211844Y59774D01*
X211758Y59822D01*
X211671Y59867D01*
X211582Y59909D01*
X211492Y59947D01*
X211400Y59981D01*
X211307Y60012D01*
X211212Y60039D01*
X211117Y60062D01*
X211020Y60082D01*
X210924Y60097D01*
X210826Y60109D01*
X210728Y60117D01*
X210630Y60121D01*
X210532Y60121D01*
X210434Y60117D01*
X210336Y60109D01*
X210238Y60097D01*
X210142Y60082D01*
X210045Y60062D01*
X209950Y60039D01*
X209855Y60012D01*
X209762Y59981D01*
X209670Y59947D01*
X209580Y59909D01*
X209491Y59867D01*
X209404Y59822D01*
X209318Y59774D01*
X209235Y59722D01*
X209154Y59667D01*
X209075Y59608D01*
X208998Y59547D01*
X208924Y59482D01*
X208853Y59415D01*
X208784Y59345D01*
X208718Y59272D01*
X208655Y59197D01*
X208595Y59119D01*
X208538Y59039D01*
X208485Y58957D01*
X208435Y58872D01*
X208388Y58786D01*
X208344Y58698D01*
X208305Y58608D01*
X208268Y58517D01*
X208236Y58424D01*
X208207Y58330D01*
X208182Y58236D01*
X208161Y58140D01*
X208143Y58043D01*
X208130Y57946D01*
X208120Y57848D01*
X208114Y57750D01*
X208112Y57652D01*
X204160Y58145D02*
X204160Y55182D01*
X204160Y58145D02*
X204162Y58232D01*
X204168Y58320D01*
X204177Y58407D01*
X204191Y58493D01*
X204208Y58579D01*
X204229Y58663D01*
X204254Y58747D01*
X204283Y58830D01*
X204315Y58911D01*
X204350Y58991D01*
X204389Y59069D01*
X204432Y59146D01*
X204478Y59220D01*
X204527Y59292D01*
X204579Y59362D01*
X204635Y59430D01*
X204693Y59495D01*
X204754Y59558D01*
X204818Y59617D01*
X204885Y59674D01*
X204953Y59728D01*
X205025Y59779D01*
X205098Y59826D01*
X205173Y59871D01*
X205251Y59912D01*
X205330Y59949D01*
X205410Y59983D01*
X205492Y60013D01*
X205575Y60040D01*
X205660Y60063D01*
X205745Y60082D01*
X205831Y60097D01*
X205918Y60109D01*
X206005Y60117D01*
X206092Y60121D01*
X206180Y60121D01*
X206267Y60117D01*
X206354Y60109D01*
X206441Y60097D01*
X206527Y60082D01*
X206612Y60063D01*
X206697Y60040D01*
X206780Y60013D01*
X206862Y59983D01*
X206942Y59949D01*
X207021Y59912D01*
X207099Y59871D01*
X207174Y59826D01*
X207247Y59779D01*
X207319Y59728D01*
X207387Y59674D01*
X207454Y59617D01*
X207518Y59558D01*
X207579Y59495D01*
X207637Y59430D01*
X207693Y59362D01*
X207745Y59292D01*
X207794Y59220D01*
X207840Y59146D01*
X207883Y59069D01*
X207922Y58991D01*
X207957Y58911D01*
X207989Y58830D01*
X208018Y58747D01*
X208043Y58663D01*
X208064Y58579D01*
X208081Y58493D01*
X208095Y58407D01*
X208104Y58320D01*
X208110Y58232D01*
X208112Y58145D01*
X208111Y58145D02*
X208111Y56170D01*
X213050Y64326D02*
X213050Y67289D01*
X213048Y67378D01*
X213042Y67466D01*
X213032Y67554D01*
X213018Y67642D01*
X213000Y67729D01*
X212979Y67815D01*
X212953Y67900D01*
X212924Y67983D01*
X212891Y68066D01*
X212854Y68146D01*
X212814Y68225D01*
X212770Y68302D01*
X212723Y68378D01*
X212673Y68450D01*
X212619Y68521D01*
X212562Y68589D01*
X212502Y68655D01*
X212440Y68717D01*
X212374Y68777D01*
X212306Y68834D01*
X212235Y68888D01*
X212163Y68938D01*
X212088Y68985D01*
X212010Y69029D01*
X211931Y69069D01*
X211851Y69106D01*
X211768Y69139D01*
X211685Y69168D01*
X211600Y69194D01*
X211514Y69215D01*
X211427Y69233D01*
X211339Y69247D01*
X211251Y69257D01*
X211163Y69263D01*
X211074Y69265D01*
X210087Y69265D01*
X210001Y69263D01*
X209915Y69257D01*
X209829Y69248D01*
X209744Y69235D01*
X209659Y69218D01*
X209576Y69198D01*
X209493Y69174D01*
X209411Y69146D01*
X209331Y69115D01*
X209252Y69080D01*
X209175Y69042D01*
X209099Y69000D01*
X209025Y68956D01*
X208954Y68908D01*
X208884Y68857D01*
X208817Y68803D01*
X208752Y68746D01*
X208690Y68686D01*
X208630Y68624D01*
X208573Y68559D01*
X208519Y68492D01*
X208468Y68422D01*
X208420Y68351D01*
X208376Y68277D01*
X208334Y68201D01*
X208296Y68124D01*
X208261Y68045D01*
X208230Y67965D01*
X208202Y67883D01*
X208178Y67800D01*
X208158Y67717D01*
X208141Y67632D01*
X208128Y67547D01*
X208119Y67461D01*
X208113Y67375D01*
X208111Y67289D01*
X208111Y64326D01*
X204160Y64326D01*
X204160Y69265D01*
X136850Y41192D02*
X127960Y41192D01*
X136850Y40205D02*
X136850Y42180D01*
X127960Y42180D02*
X127960Y40205D01*
X130429Y46038D02*
X134381Y46038D01*
X130429Y46039D02*
X130331Y46041D01*
X130233Y46047D01*
X130135Y46057D01*
X130038Y46070D01*
X129941Y46088D01*
X129845Y46109D01*
X129751Y46134D01*
X129657Y46163D01*
X129564Y46195D01*
X129473Y46232D01*
X129383Y46271D01*
X129295Y46315D01*
X129209Y46362D01*
X129124Y46412D01*
X129042Y46465D01*
X128962Y46522D01*
X128884Y46582D01*
X128809Y46645D01*
X128736Y46711D01*
X128666Y46780D01*
X128599Y46851D01*
X128534Y46925D01*
X128473Y47002D01*
X128414Y47081D01*
X128359Y47162D01*
X128307Y47245D01*
X128259Y47331D01*
X128214Y47418D01*
X128172Y47507D01*
X128134Y47597D01*
X128100Y47689D01*
X128069Y47782D01*
X128042Y47877D01*
X128019Y47972D01*
X127999Y48069D01*
X127984Y48165D01*
X127972Y48263D01*
X127964Y48361D01*
X127960Y48459D01*
X127960Y48557D01*
X127964Y48655D01*
X127972Y48753D01*
X127984Y48851D01*
X127999Y48947D01*
X128019Y49044D01*
X128042Y49139D01*
X128069Y49234D01*
X128100Y49327D01*
X128134Y49419D01*
X128172Y49509D01*
X128214Y49598D01*
X128259Y49685D01*
X128307Y49771D01*
X128359Y49854D01*
X128414Y49935D01*
X128473Y50014D01*
X128534Y50091D01*
X128599Y50165D01*
X128666Y50236D01*
X128736Y50305D01*
X128809Y50371D01*
X128884Y50434D01*
X128962Y50494D01*
X129042Y50551D01*
X129124Y50604D01*
X129209Y50654D01*
X129295Y50701D01*
X129383Y50745D01*
X129473Y50784D01*
X129564Y50821D01*
X129657Y50853D01*
X129751Y50882D01*
X129845Y50907D01*
X129941Y50928D01*
X130038Y50946D01*
X130135Y50959D01*
X130233Y50969D01*
X130331Y50975D01*
X130429Y50977D01*
X134381Y50977D01*
X134479Y50975D01*
X134577Y50969D01*
X134675Y50959D01*
X134772Y50946D01*
X134869Y50928D01*
X134965Y50907D01*
X135059Y50882D01*
X135153Y50853D01*
X135246Y50821D01*
X135337Y50784D01*
X135427Y50745D01*
X135515Y50701D01*
X135601Y50654D01*
X135686Y50604D01*
X135768Y50551D01*
X135848Y50494D01*
X135926Y50434D01*
X136001Y50371D01*
X136074Y50305D01*
X136144Y50236D01*
X136211Y50165D01*
X136276Y50091D01*
X136337Y50014D01*
X136396Y49935D01*
X136451Y49854D01*
X136503Y49771D01*
X136551Y49685D01*
X136596Y49598D01*
X136638Y49509D01*
X136676Y49419D01*
X136710Y49327D01*
X136741Y49234D01*
X136768Y49139D01*
X136791Y49044D01*
X136811Y48947D01*
X136826Y48851D01*
X136838Y48753D01*
X136846Y48655D01*
X136850Y48557D01*
X136850Y48459D01*
X136846Y48361D01*
X136838Y48263D01*
X136826Y48165D01*
X136811Y48069D01*
X136791Y47972D01*
X136768Y47877D01*
X136741Y47782D01*
X136710Y47689D01*
X136676Y47597D01*
X136638Y47507D01*
X136596Y47418D01*
X136551Y47331D01*
X136503Y47245D01*
X136451Y47162D01*
X136396Y47081D01*
X136337Y47002D01*
X136276Y46925D01*
X136211Y46851D01*
X136144Y46780D01*
X136074Y46711D01*
X136001Y46645D01*
X135926Y46582D01*
X135848Y46522D01*
X135768Y46465D01*
X135686Y46412D01*
X135601Y46362D01*
X135515Y46315D01*
X135427Y46271D01*
X135337Y46232D01*
X135246Y46195D01*
X135153Y46163D01*
X135059Y46134D01*
X134965Y46109D01*
X134869Y46088D01*
X134772Y46070D01*
X134675Y46057D01*
X134577Y46047D01*
X134479Y46041D01*
X134381Y46039D01*
X136850Y55182D02*
X136850Y57652D01*
X136848Y57750D01*
X136842Y57848D01*
X136832Y57946D01*
X136819Y58043D01*
X136801Y58140D01*
X136780Y58236D01*
X136755Y58330D01*
X136726Y58424D01*
X136694Y58517D01*
X136657Y58608D01*
X136618Y58698D01*
X136574Y58786D01*
X136527Y58872D01*
X136477Y58957D01*
X136424Y59039D01*
X136367Y59119D01*
X136307Y59197D01*
X136244Y59272D01*
X136178Y59345D01*
X136109Y59415D01*
X136038Y59482D01*
X135964Y59547D01*
X135887Y59608D01*
X135808Y59667D01*
X135727Y59722D01*
X135644Y59774D01*
X135558Y59822D01*
X135471Y59867D01*
X135382Y59909D01*
X135292Y59947D01*
X135200Y59981D01*
X135107Y60012D01*
X135012Y60039D01*
X134917Y60062D01*
X134820Y60082D01*
X134724Y60097D01*
X134626Y60109D01*
X134528Y60117D01*
X134430Y60121D01*
X134332Y60121D01*
X134234Y60117D01*
X134136Y60109D01*
X134038Y60097D01*
X133942Y60082D01*
X133845Y60062D01*
X133750Y60039D01*
X133655Y60012D01*
X133562Y59981D01*
X133470Y59947D01*
X133380Y59909D01*
X133291Y59867D01*
X133204Y59822D01*
X133118Y59774D01*
X133035Y59722D01*
X132954Y59667D01*
X132875Y59608D01*
X132798Y59547D01*
X132724Y59482D01*
X132653Y59415D01*
X132584Y59345D01*
X132518Y59272D01*
X132455Y59197D01*
X132395Y59119D01*
X132338Y59039D01*
X132285Y58957D01*
X132235Y58872D01*
X132188Y58786D01*
X132144Y58698D01*
X132105Y58608D01*
X132068Y58517D01*
X132036Y58424D01*
X132007Y58330D01*
X131982Y58236D01*
X131961Y58140D01*
X131943Y58043D01*
X131930Y57946D01*
X131920Y57848D01*
X131914Y57750D01*
X131912Y57652D01*
X127960Y58145D02*
X127960Y55182D01*
X127960Y58145D02*
X127962Y58232D01*
X127968Y58320D01*
X127977Y58407D01*
X127991Y58493D01*
X128008Y58579D01*
X128029Y58663D01*
X128054Y58747D01*
X128083Y58830D01*
X128115Y58911D01*
X128150Y58991D01*
X128189Y59069D01*
X128232Y59146D01*
X128278Y59220D01*
X128327Y59292D01*
X128379Y59362D01*
X128435Y59430D01*
X128493Y59495D01*
X128554Y59558D01*
X128618Y59617D01*
X128685Y59674D01*
X128753Y59728D01*
X128825Y59779D01*
X128898Y59826D01*
X128973Y59871D01*
X129051Y59912D01*
X129130Y59949D01*
X129210Y59983D01*
X129292Y60013D01*
X129375Y60040D01*
X129460Y60063D01*
X129545Y60082D01*
X129631Y60097D01*
X129718Y60109D01*
X129805Y60117D01*
X129892Y60121D01*
X129980Y60121D01*
X130067Y60117D01*
X130154Y60109D01*
X130241Y60097D01*
X130327Y60082D01*
X130412Y60063D01*
X130497Y60040D01*
X130580Y60013D01*
X130662Y59983D01*
X130742Y59949D01*
X130821Y59912D01*
X130899Y59871D01*
X130974Y59826D01*
X131047Y59779D01*
X131119Y59728D01*
X131187Y59674D01*
X131254Y59617D01*
X131318Y59558D01*
X131379Y59495D01*
X131437Y59430D01*
X131493Y59362D01*
X131545Y59292D01*
X131594Y59220D01*
X131640Y59146D01*
X131683Y59069D01*
X131722Y58991D01*
X131757Y58911D01*
X131789Y58830D01*
X131818Y58747D01*
X131843Y58663D01*
X131864Y58579D01*
X131881Y58493D01*
X131895Y58407D01*
X131904Y58320D01*
X131910Y58232D01*
X131912Y58145D01*
X131911Y58145D02*
X131911Y56170D01*
X127960Y67043D02*
X127962Y67135D01*
X127968Y67227D01*
X127977Y67318D01*
X127990Y67409D01*
X128007Y67499D01*
X128028Y67589D01*
X128052Y67677D01*
X128080Y67765D01*
X128112Y67851D01*
X128147Y67936D01*
X128186Y68019D01*
X128228Y68101D01*
X128273Y68181D01*
X128322Y68259D01*
X128374Y68335D01*
X128429Y68408D01*
X128487Y68480D01*
X128547Y68549D01*
X128611Y68615D01*
X128677Y68679D01*
X128746Y68739D01*
X128818Y68797D01*
X128891Y68852D01*
X128967Y68904D01*
X129045Y68953D01*
X129125Y68998D01*
X129207Y69040D01*
X129290Y69079D01*
X129375Y69114D01*
X129461Y69146D01*
X129549Y69174D01*
X129637Y69198D01*
X129727Y69219D01*
X129817Y69236D01*
X129908Y69249D01*
X129999Y69258D01*
X130091Y69264D01*
X130183Y69266D01*
X127960Y67043D02*
X127962Y66937D01*
X127968Y66832D01*
X127978Y66727D01*
X127991Y66622D01*
X128009Y66518D01*
X128030Y66415D01*
X128055Y66312D01*
X128084Y66210D01*
X128117Y66110D01*
X128153Y66011D01*
X128193Y65913D01*
X128237Y65817D01*
X128284Y65722D01*
X128334Y65630D01*
X128388Y65539D01*
X128446Y65450D01*
X128506Y65364D01*
X128570Y65280D01*
X128636Y65198D01*
X128706Y65118D01*
X128779Y65042D01*
X128854Y64968D01*
X128932Y64897D01*
X129013Y64829D01*
X129096Y64763D01*
X129182Y64701D01*
X129269Y64643D01*
X129359Y64587D01*
X129451Y64535D01*
X129545Y64486D01*
X129640Y64441D01*
X129737Y64399D01*
X129836Y64361D01*
X129935Y64327D01*
X131912Y68524D02*
X131843Y68593D01*
X131773Y68659D01*
X131699Y68722D01*
X131623Y68781D01*
X131545Y68838D01*
X131465Y68892D01*
X131382Y68942D01*
X131298Y68989D01*
X131211Y69032D01*
X131123Y69072D01*
X131034Y69108D01*
X130943Y69141D01*
X130851Y69170D01*
X130757Y69195D01*
X130663Y69216D01*
X130568Y69234D01*
X130472Y69247D01*
X130376Y69257D01*
X130280Y69263D01*
X130183Y69265D01*
X131911Y68524D02*
X136850Y64326D01*
X136850Y69265D01*
X153360Y41192D02*
X162250Y41192D01*
X162250Y40205D02*
X162250Y42180D01*
X153360Y42180D02*
X153360Y40205D01*
X155829Y46038D02*
X159781Y46038D01*
X155829Y46039D02*
X155731Y46041D01*
X155633Y46047D01*
X155535Y46057D01*
X155438Y46070D01*
X155341Y46088D01*
X155245Y46109D01*
X155151Y46134D01*
X155057Y46163D01*
X154964Y46195D01*
X154873Y46232D01*
X154783Y46271D01*
X154695Y46315D01*
X154609Y46362D01*
X154524Y46412D01*
X154442Y46465D01*
X154362Y46522D01*
X154284Y46582D01*
X154209Y46645D01*
X154136Y46711D01*
X154066Y46780D01*
X153999Y46851D01*
X153934Y46925D01*
X153873Y47002D01*
X153814Y47081D01*
X153759Y47162D01*
X153707Y47245D01*
X153659Y47331D01*
X153614Y47418D01*
X153572Y47507D01*
X153534Y47597D01*
X153500Y47689D01*
X153469Y47782D01*
X153442Y47877D01*
X153419Y47972D01*
X153399Y48069D01*
X153384Y48165D01*
X153372Y48263D01*
X153364Y48361D01*
X153360Y48459D01*
X153360Y48557D01*
X153364Y48655D01*
X153372Y48753D01*
X153384Y48851D01*
X153399Y48947D01*
X153419Y49044D01*
X153442Y49139D01*
X153469Y49234D01*
X153500Y49327D01*
X153534Y49419D01*
X153572Y49509D01*
X153614Y49598D01*
X153659Y49685D01*
X153707Y49771D01*
X153759Y49854D01*
X153814Y49935D01*
X153873Y50014D01*
X153934Y50091D01*
X153999Y50165D01*
X154066Y50236D01*
X154136Y50305D01*
X154209Y50371D01*
X154284Y50434D01*
X154362Y50494D01*
X154442Y50551D01*
X154524Y50604D01*
X154609Y50654D01*
X154695Y50701D01*
X154783Y50745D01*
X154873Y50784D01*
X154964Y50821D01*
X155057Y50853D01*
X155151Y50882D01*
X155245Y50907D01*
X155341Y50928D01*
X155438Y50946D01*
X155535Y50959D01*
X155633Y50969D01*
X155731Y50975D01*
X155829Y50977D01*
X159781Y50977D01*
X159879Y50975D01*
X159977Y50969D01*
X160075Y50959D01*
X160172Y50946D01*
X160269Y50928D01*
X160365Y50907D01*
X160459Y50882D01*
X160553Y50853D01*
X160646Y50821D01*
X160737Y50784D01*
X160827Y50745D01*
X160915Y50701D01*
X161001Y50654D01*
X161086Y50604D01*
X161168Y50551D01*
X161248Y50494D01*
X161326Y50434D01*
X161401Y50371D01*
X161474Y50305D01*
X161544Y50236D01*
X161611Y50165D01*
X161676Y50091D01*
X161737Y50014D01*
X161796Y49935D01*
X161851Y49854D01*
X161903Y49771D01*
X161951Y49685D01*
X161996Y49598D01*
X162038Y49509D01*
X162076Y49419D01*
X162110Y49327D01*
X162141Y49234D01*
X162168Y49139D01*
X162191Y49044D01*
X162211Y48947D01*
X162226Y48851D01*
X162238Y48753D01*
X162246Y48655D01*
X162250Y48557D01*
X162250Y48459D01*
X162246Y48361D01*
X162238Y48263D01*
X162226Y48165D01*
X162211Y48069D01*
X162191Y47972D01*
X162168Y47877D01*
X162141Y47782D01*
X162110Y47689D01*
X162076Y47597D01*
X162038Y47507D01*
X161996Y47418D01*
X161951Y47331D01*
X161903Y47245D01*
X161851Y47162D01*
X161796Y47081D01*
X161737Y47002D01*
X161676Y46925D01*
X161611Y46851D01*
X161544Y46780D01*
X161474Y46711D01*
X161401Y46645D01*
X161326Y46582D01*
X161248Y46522D01*
X161168Y46465D01*
X161086Y46412D01*
X161001Y46362D01*
X160915Y46315D01*
X160827Y46271D01*
X160737Y46232D01*
X160646Y46195D01*
X160553Y46163D01*
X160459Y46134D01*
X160365Y46109D01*
X160269Y46088D01*
X160172Y46070D01*
X160075Y46057D01*
X159977Y46047D01*
X159879Y46041D01*
X159781Y46039D01*
X162250Y55182D02*
X162250Y57652D01*
X162248Y57750D01*
X162242Y57848D01*
X162232Y57946D01*
X162219Y58043D01*
X162201Y58140D01*
X162180Y58236D01*
X162155Y58330D01*
X162126Y58424D01*
X162094Y58517D01*
X162057Y58608D01*
X162018Y58698D01*
X161974Y58786D01*
X161927Y58872D01*
X161877Y58957D01*
X161824Y59039D01*
X161767Y59119D01*
X161707Y59197D01*
X161644Y59272D01*
X161578Y59345D01*
X161509Y59415D01*
X161438Y59482D01*
X161364Y59547D01*
X161287Y59608D01*
X161208Y59667D01*
X161127Y59722D01*
X161044Y59774D01*
X160958Y59822D01*
X160871Y59867D01*
X160782Y59909D01*
X160692Y59947D01*
X160600Y59981D01*
X160507Y60012D01*
X160412Y60039D01*
X160317Y60062D01*
X160220Y60082D01*
X160124Y60097D01*
X160026Y60109D01*
X159928Y60117D01*
X159830Y60121D01*
X159732Y60121D01*
X159634Y60117D01*
X159536Y60109D01*
X159438Y60097D01*
X159342Y60082D01*
X159245Y60062D01*
X159150Y60039D01*
X159055Y60012D01*
X158962Y59981D01*
X158870Y59947D01*
X158780Y59909D01*
X158691Y59867D01*
X158604Y59822D01*
X158518Y59774D01*
X158435Y59722D01*
X158354Y59667D01*
X158275Y59608D01*
X158198Y59547D01*
X158124Y59482D01*
X158053Y59415D01*
X157984Y59345D01*
X157918Y59272D01*
X157855Y59197D01*
X157795Y59119D01*
X157738Y59039D01*
X157685Y58957D01*
X157635Y58872D01*
X157588Y58786D01*
X157544Y58698D01*
X157505Y58608D01*
X157468Y58517D01*
X157436Y58424D01*
X157407Y58330D01*
X157382Y58236D01*
X157361Y58140D01*
X157343Y58043D01*
X157330Y57946D01*
X157320Y57848D01*
X157314Y57750D01*
X157312Y57652D01*
X153360Y58145D02*
X153360Y55182D01*
X153360Y58145D02*
X153362Y58232D01*
X153368Y58320D01*
X153377Y58407D01*
X153391Y58493D01*
X153408Y58579D01*
X153429Y58663D01*
X153454Y58747D01*
X153483Y58830D01*
X153515Y58911D01*
X153550Y58991D01*
X153589Y59069D01*
X153632Y59146D01*
X153678Y59220D01*
X153727Y59292D01*
X153779Y59362D01*
X153835Y59430D01*
X153893Y59495D01*
X153954Y59558D01*
X154018Y59617D01*
X154085Y59674D01*
X154153Y59728D01*
X154225Y59779D01*
X154298Y59826D01*
X154373Y59871D01*
X154451Y59912D01*
X154530Y59949D01*
X154610Y59983D01*
X154692Y60013D01*
X154775Y60040D01*
X154860Y60063D01*
X154945Y60082D01*
X155031Y60097D01*
X155118Y60109D01*
X155205Y60117D01*
X155292Y60121D01*
X155380Y60121D01*
X155467Y60117D01*
X155554Y60109D01*
X155641Y60097D01*
X155727Y60082D01*
X155812Y60063D01*
X155897Y60040D01*
X155980Y60013D01*
X156062Y59983D01*
X156142Y59949D01*
X156221Y59912D01*
X156299Y59871D01*
X156374Y59826D01*
X156447Y59779D01*
X156519Y59728D01*
X156587Y59674D01*
X156654Y59617D01*
X156718Y59558D01*
X156779Y59495D01*
X156837Y59430D01*
X156893Y59362D01*
X156945Y59292D01*
X156994Y59220D01*
X157040Y59146D01*
X157083Y59069D01*
X157122Y58991D01*
X157157Y58911D01*
X157189Y58830D01*
X157218Y58747D01*
X157243Y58663D01*
X157264Y58579D01*
X157281Y58493D01*
X157295Y58407D01*
X157304Y58320D01*
X157310Y58232D01*
X157312Y58145D01*
X157311Y58145D02*
X157311Y56170D01*
X162250Y64326D02*
X162250Y66796D01*
X162248Y66894D01*
X162242Y66992D01*
X162232Y67090D01*
X162219Y67187D01*
X162201Y67284D01*
X162180Y67380D01*
X162155Y67474D01*
X162126Y67568D01*
X162094Y67661D01*
X162057Y67752D01*
X162018Y67842D01*
X161974Y67930D01*
X161927Y68016D01*
X161877Y68101D01*
X161824Y68183D01*
X161767Y68263D01*
X161707Y68341D01*
X161644Y68416D01*
X161578Y68489D01*
X161509Y68559D01*
X161438Y68626D01*
X161364Y68691D01*
X161287Y68752D01*
X161208Y68811D01*
X161127Y68866D01*
X161044Y68918D01*
X160958Y68966D01*
X160871Y69011D01*
X160782Y69053D01*
X160692Y69091D01*
X160600Y69125D01*
X160507Y69156D01*
X160412Y69183D01*
X160317Y69206D01*
X160220Y69226D01*
X160124Y69241D01*
X160026Y69253D01*
X159928Y69261D01*
X159830Y69265D01*
X159732Y69265D01*
X159634Y69261D01*
X159536Y69253D01*
X159438Y69241D01*
X159342Y69226D01*
X159245Y69206D01*
X159150Y69183D01*
X159055Y69156D01*
X158962Y69125D01*
X158870Y69091D01*
X158780Y69053D01*
X158691Y69011D01*
X158604Y68966D01*
X158518Y68918D01*
X158435Y68866D01*
X158354Y68811D01*
X158275Y68752D01*
X158198Y68691D01*
X158124Y68626D01*
X158053Y68559D01*
X157984Y68489D01*
X157918Y68416D01*
X157855Y68341D01*
X157795Y68263D01*
X157738Y68183D01*
X157685Y68101D01*
X157635Y68016D01*
X157588Y67930D01*
X157544Y67842D01*
X157505Y67752D01*
X157468Y67661D01*
X157436Y67568D01*
X157407Y67474D01*
X157382Y67380D01*
X157361Y67284D01*
X157343Y67187D01*
X157330Y67090D01*
X157320Y66992D01*
X157314Y66894D01*
X157312Y66796D01*
X153360Y67289D02*
X153360Y64326D01*
X153360Y67289D02*
X153362Y67376D01*
X153368Y67464D01*
X153377Y67551D01*
X153391Y67637D01*
X153408Y67723D01*
X153429Y67807D01*
X153454Y67891D01*
X153483Y67974D01*
X153515Y68055D01*
X153550Y68135D01*
X153589Y68213D01*
X153632Y68290D01*
X153678Y68364D01*
X153727Y68436D01*
X153779Y68506D01*
X153835Y68574D01*
X153893Y68639D01*
X153954Y68702D01*
X154018Y68761D01*
X154085Y68818D01*
X154153Y68872D01*
X154225Y68923D01*
X154298Y68970D01*
X154373Y69015D01*
X154451Y69056D01*
X154530Y69093D01*
X154610Y69127D01*
X154692Y69157D01*
X154775Y69184D01*
X154860Y69207D01*
X154945Y69226D01*
X155031Y69241D01*
X155118Y69253D01*
X155205Y69261D01*
X155292Y69265D01*
X155380Y69265D01*
X155467Y69261D01*
X155554Y69253D01*
X155641Y69241D01*
X155727Y69226D01*
X155812Y69207D01*
X155897Y69184D01*
X155980Y69157D01*
X156062Y69127D01*
X156142Y69093D01*
X156221Y69056D01*
X156299Y69015D01*
X156374Y68970D01*
X156447Y68923D01*
X156519Y68872D01*
X156587Y68818D01*
X156654Y68761D01*
X156718Y68702D01*
X156779Y68639D01*
X156837Y68574D01*
X156893Y68506D01*
X156945Y68436D01*
X156994Y68364D01*
X157040Y68290D01*
X157083Y68213D01*
X157122Y68135D01*
X157157Y68055D01*
X157189Y67974D01*
X157218Y67891D01*
X157243Y67807D01*
X157264Y67723D01*
X157281Y67637D01*
X157295Y67551D01*
X157304Y67464D01*
X157310Y67376D01*
X157312Y67289D01*
X157311Y67289D02*
X157311Y65314D01*
X86050Y245436D02*
X77160Y245436D01*
X86050Y244449D02*
X86050Y246424D01*
X77160Y246424D02*
X77160Y244449D01*
X79629Y250282D02*
X83581Y250282D01*
X79629Y250283D02*
X79531Y250285D01*
X79433Y250291D01*
X79335Y250301D01*
X79238Y250314D01*
X79141Y250332D01*
X79045Y250353D01*
X78951Y250378D01*
X78857Y250407D01*
X78764Y250439D01*
X78673Y250476D01*
X78583Y250515D01*
X78495Y250559D01*
X78409Y250606D01*
X78324Y250656D01*
X78242Y250709D01*
X78162Y250766D01*
X78084Y250826D01*
X78009Y250889D01*
X77936Y250955D01*
X77866Y251024D01*
X77799Y251095D01*
X77734Y251169D01*
X77673Y251246D01*
X77614Y251325D01*
X77559Y251406D01*
X77507Y251489D01*
X77459Y251575D01*
X77414Y251662D01*
X77372Y251751D01*
X77334Y251841D01*
X77300Y251933D01*
X77269Y252026D01*
X77242Y252121D01*
X77219Y252216D01*
X77199Y252313D01*
X77184Y252409D01*
X77172Y252507D01*
X77164Y252605D01*
X77160Y252703D01*
X77160Y252801D01*
X77164Y252899D01*
X77172Y252997D01*
X77184Y253095D01*
X77199Y253191D01*
X77219Y253288D01*
X77242Y253383D01*
X77269Y253478D01*
X77300Y253571D01*
X77334Y253663D01*
X77372Y253753D01*
X77414Y253842D01*
X77459Y253929D01*
X77507Y254015D01*
X77559Y254098D01*
X77614Y254179D01*
X77673Y254258D01*
X77734Y254335D01*
X77799Y254409D01*
X77866Y254480D01*
X77936Y254549D01*
X78009Y254615D01*
X78084Y254678D01*
X78162Y254738D01*
X78242Y254795D01*
X78324Y254848D01*
X78409Y254898D01*
X78495Y254945D01*
X78583Y254989D01*
X78673Y255028D01*
X78764Y255065D01*
X78857Y255097D01*
X78951Y255126D01*
X79045Y255151D01*
X79141Y255172D01*
X79238Y255190D01*
X79335Y255203D01*
X79433Y255213D01*
X79531Y255219D01*
X79629Y255221D01*
X83581Y255221D01*
X83679Y255219D01*
X83777Y255213D01*
X83875Y255203D01*
X83972Y255190D01*
X84069Y255172D01*
X84165Y255151D01*
X84259Y255126D01*
X84353Y255097D01*
X84446Y255065D01*
X84537Y255028D01*
X84627Y254989D01*
X84715Y254945D01*
X84801Y254898D01*
X84886Y254848D01*
X84968Y254795D01*
X85048Y254738D01*
X85126Y254678D01*
X85201Y254615D01*
X85274Y254549D01*
X85344Y254480D01*
X85411Y254409D01*
X85476Y254335D01*
X85537Y254258D01*
X85596Y254179D01*
X85651Y254098D01*
X85703Y254015D01*
X85751Y253929D01*
X85796Y253842D01*
X85838Y253753D01*
X85876Y253663D01*
X85910Y253571D01*
X85941Y253478D01*
X85968Y253383D01*
X85991Y253288D01*
X86011Y253191D01*
X86026Y253095D01*
X86038Y252997D01*
X86046Y252899D01*
X86050Y252801D01*
X86050Y252703D01*
X86046Y252605D01*
X86038Y252507D01*
X86026Y252409D01*
X86011Y252313D01*
X85991Y252216D01*
X85968Y252121D01*
X85941Y252026D01*
X85910Y251933D01*
X85876Y251841D01*
X85838Y251751D01*
X85796Y251662D01*
X85751Y251575D01*
X85703Y251489D01*
X85651Y251406D01*
X85596Y251325D01*
X85537Y251246D01*
X85476Y251169D01*
X85411Y251095D01*
X85344Y251024D01*
X85274Y250955D01*
X85201Y250889D01*
X85126Y250826D01*
X85048Y250766D01*
X84968Y250709D01*
X84886Y250656D01*
X84801Y250606D01*
X84715Y250559D01*
X84627Y250515D01*
X84537Y250476D01*
X84446Y250439D01*
X84353Y250407D01*
X84259Y250378D01*
X84165Y250353D01*
X84069Y250332D01*
X83972Y250314D01*
X83875Y250301D01*
X83777Y250291D01*
X83679Y250285D01*
X83581Y250283D01*
X86050Y259426D02*
X86050Y261896D01*
X86048Y261994D01*
X86042Y262092D01*
X86032Y262190D01*
X86019Y262287D01*
X86001Y262384D01*
X85980Y262480D01*
X85955Y262574D01*
X85926Y262668D01*
X85894Y262761D01*
X85857Y262852D01*
X85818Y262942D01*
X85774Y263030D01*
X85727Y263116D01*
X85677Y263201D01*
X85624Y263283D01*
X85567Y263363D01*
X85507Y263441D01*
X85444Y263516D01*
X85378Y263589D01*
X85309Y263659D01*
X85238Y263726D01*
X85164Y263791D01*
X85087Y263852D01*
X85008Y263911D01*
X84927Y263966D01*
X84844Y264018D01*
X84758Y264066D01*
X84671Y264111D01*
X84582Y264153D01*
X84492Y264191D01*
X84400Y264225D01*
X84307Y264256D01*
X84212Y264283D01*
X84117Y264306D01*
X84020Y264326D01*
X83924Y264341D01*
X83826Y264353D01*
X83728Y264361D01*
X83630Y264365D01*
X83532Y264365D01*
X83434Y264361D01*
X83336Y264353D01*
X83238Y264341D01*
X83142Y264326D01*
X83045Y264306D01*
X82950Y264283D01*
X82855Y264256D01*
X82762Y264225D01*
X82670Y264191D01*
X82580Y264153D01*
X82491Y264111D01*
X82404Y264066D01*
X82318Y264018D01*
X82235Y263966D01*
X82154Y263911D01*
X82075Y263852D01*
X81998Y263791D01*
X81924Y263726D01*
X81853Y263659D01*
X81784Y263589D01*
X81718Y263516D01*
X81655Y263441D01*
X81595Y263363D01*
X81538Y263283D01*
X81485Y263201D01*
X81435Y263116D01*
X81388Y263030D01*
X81344Y262942D01*
X81305Y262852D01*
X81268Y262761D01*
X81236Y262668D01*
X81207Y262574D01*
X81182Y262480D01*
X81161Y262384D01*
X81143Y262287D01*
X81130Y262190D01*
X81120Y262092D01*
X81114Y261994D01*
X81112Y261896D01*
X77160Y262389D02*
X77160Y259426D01*
X77160Y262389D02*
X77162Y262476D01*
X77168Y262564D01*
X77177Y262651D01*
X77191Y262737D01*
X77208Y262823D01*
X77229Y262907D01*
X77254Y262991D01*
X77283Y263074D01*
X77315Y263155D01*
X77350Y263235D01*
X77389Y263313D01*
X77432Y263390D01*
X77478Y263464D01*
X77527Y263536D01*
X77579Y263606D01*
X77635Y263674D01*
X77693Y263739D01*
X77754Y263802D01*
X77818Y263861D01*
X77885Y263918D01*
X77953Y263972D01*
X78025Y264023D01*
X78098Y264070D01*
X78173Y264115D01*
X78251Y264156D01*
X78330Y264193D01*
X78410Y264227D01*
X78492Y264257D01*
X78575Y264284D01*
X78660Y264307D01*
X78745Y264326D01*
X78831Y264341D01*
X78918Y264353D01*
X79005Y264361D01*
X79092Y264365D01*
X79180Y264365D01*
X79267Y264361D01*
X79354Y264353D01*
X79441Y264341D01*
X79527Y264326D01*
X79612Y264307D01*
X79697Y264284D01*
X79780Y264257D01*
X79862Y264227D01*
X79942Y264193D01*
X80021Y264156D01*
X80099Y264115D01*
X80174Y264070D01*
X80247Y264023D01*
X80319Y263972D01*
X80387Y263918D01*
X80454Y263861D01*
X80518Y263802D01*
X80579Y263739D01*
X80637Y263674D01*
X80693Y263606D01*
X80745Y263536D01*
X80794Y263464D01*
X80840Y263390D01*
X80883Y263313D01*
X80922Y263235D01*
X80957Y263155D01*
X80989Y263074D01*
X81018Y262991D01*
X81043Y262907D01*
X81064Y262823D01*
X81081Y262737D01*
X81095Y262651D01*
X81104Y262564D01*
X81110Y262476D01*
X81112Y262389D01*
X81111Y262389D02*
X81111Y260414D01*
X127960Y245436D02*
X136850Y245436D01*
X136850Y244449D02*
X136850Y246424D01*
X127960Y246424D02*
X127960Y244449D01*
X130429Y250282D02*
X134381Y250282D01*
X130429Y250283D02*
X130331Y250285D01*
X130233Y250291D01*
X130135Y250301D01*
X130038Y250314D01*
X129941Y250332D01*
X129845Y250353D01*
X129751Y250378D01*
X129657Y250407D01*
X129564Y250439D01*
X129473Y250476D01*
X129383Y250515D01*
X129295Y250559D01*
X129209Y250606D01*
X129124Y250656D01*
X129042Y250709D01*
X128962Y250766D01*
X128884Y250826D01*
X128809Y250889D01*
X128736Y250955D01*
X128666Y251024D01*
X128599Y251095D01*
X128534Y251169D01*
X128473Y251246D01*
X128414Y251325D01*
X128359Y251406D01*
X128307Y251489D01*
X128259Y251575D01*
X128214Y251662D01*
X128172Y251751D01*
X128134Y251841D01*
X128100Y251933D01*
X128069Y252026D01*
X128042Y252121D01*
X128019Y252216D01*
X127999Y252313D01*
X127984Y252409D01*
X127972Y252507D01*
X127964Y252605D01*
X127960Y252703D01*
X127960Y252801D01*
X127964Y252899D01*
X127972Y252997D01*
X127984Y253095D01*
X127999Y253191D01*
X128019Y253288D01*
X128042Y253383D01*
X128069Y253478D01*
X128100Y253571D01*
X128134Y253663D01*
X128172Y253753D01*
X128214Y253842D01*
X128259Y253929D01*
X128307Y254015D01*
X128359Y254098D01*
X128414Y254179D01*
X128473Y254258D01*
X128534Y254335D01*
X128599Y254409D01*
X128666Y254480D01*
X128736Y254549D01*
X128809Y254615D01*
X128884Y254678D01*
X128962Y254738D01*
X129042Y254795D01*
X129124Y254848D01*
X129209Y254898D01*
X129295Y254945D01*
X129383Y254989D01*
X129473Y255028D01*
X129564Y255065D01*
X129657Y255097D01*
X129751Y255126D01*
X129845Y255151D01*
X129941Y255172D01*
X130038Y255190D01*
X130135Y255203D01*
X130233Y255213D01*
X130331Y255219D01*
X130429Y255221D01*
X134381Y255221D01*
X134479Y255219D01*
X134577Y255213D01*
X134675Y255203D01*
X134772Y255190D01*
X134869Y255172D01*
X134965Y255151D01*
X135059Y255126D01*
X135153Y255097D01*
X135246Y255065D01*
X135337Y255028D01*
X135427Y254989D01*
X135515Y254945D01*
X135601Y254898D01*
X135686Y254848D01*
X135768Y254795D01*
X135848Y254738D01*
X135926Y254678D01*
X136001Y254615D01*
X136074Y254549D01*
X136144Y254480D01*
X136211Y254409D01*
X136276Y254335D01*
X136337Y254258D01*
X136396Y254179D01*
X136451Y254098D01*
X136503Y254015D01*
X136551Y253929D01*
X136596Y253842D01*
X136638Y253753D01*
X136676Y253663D01*
X136710Y253571D01*
X136741Y253478D01*
X136768Y253383D01*
X136791Y253288D01*
X136811Y253191D01*
X136826Y253095D01*
X136838Y252997D01*
X136846Y252899D01*
X136850Y252801D01*
X136850Y252703D01*
X136846Y252605D01*
X136838Y252507D01*
X136826Y252409D01*
X136811Y252313D01*
X136791Y252216D01*
X136768Y252121D01*
X136741Y252026D01*
X136710Y251933D01*
X136676Y251841D01*
X136638Y251751D01*
X136596Y251662D01*
X136551Y251575D01*
X136503Y251489D01*
X136451Y251406D01*
X136396Y251325D01*
X136337Y251246D01*
X136276Y251169D01*
X136211Y251095D01*
X136144Y251024D01*
X136074Y250955D01*
X136001Y250889D01*
X135926Y250826D01*
X135848Y250766D01*
X135768Y250709D01*
X135686Y250656D01*
X135601Y250606D01*
X135515Y250559D01*
X135427Y250515D01*
X135337Y250476D01*
X135246Y250439D01*
X135153Y250407D01*
X135059Y250378D01*
X134965Y250353D01*
X134869Y250332D01*
X134772Y250314D01*
X134675Y250301D01*
X134577Y250291D01*
X134479Y250285D01*
X134381Y250283D01*
X129936Y259426D02*
X127960Y261896D01*
X136850Y261896D01*
X136850Y264365D02*
X136850Y259426D01*
X60650Y41192D02*
X51760Y41192D01*
X60650Y40205D02*
X60650Y42180D01*
X51760Y42180D02*
X51760Y40205D01*
X54229Y46038D02*
X58181Y46038D01*
X54229Y46039D02*
X54131Y46041D01*
X54033Y46047D01*
X53935Y46057D01*
X53838Y46070D01*
X53741Y46088D01*
X53645Y46109D01*
X53551Y46134D01*
X53457Y46163D01*
X53364Y46195D01*
X53273Y46232D01*
X53183Y46271D01*
X53095Y46315D01*
X53009Y46362D01*
X52924Y46412D01*
X52842Y46465D01*
X52762Y46522D01*
X52684Y46582D01*
X52609Y46645D01*
X52536Y46711D01*
X52466Y46780D01*
X52399Y46851D01*
X52334Y46925D01*
X52273Y47002D01*
X52214Y47081D01*
X52159Y47162D01*
X52107Y47245D01*
X52059Y47331D01*
X52014Y47418D01*
X51972Y47507D01*
X51934Y47597D01*
X51900Y47689D01*
X51869Y47782D01*
X51842Y47877D01*
X51819Y47972D01*
X51799Y48069D01*
X51784Y48165D01*
X51772Y48263D01*
X51764Y48361D01*
X51760Y48459D01*
X51760Y48557D01*
X51764Y48655D01*
X51772Y48753D01*
X51784Y48851D01*
X51799Y48947D01*
X51819Y49044D01*
X51842Y49139D01*
X51869Y49234D01*
X51900Y49327D01*
X51934Y49419D01*
X51972Y49509D01*
X52014Y49598D01*
X52059Y49685D01*
X52107Y49771D01*
X52159Y49854D01*
X52214Y49935D01*
X52273Y50014D01*
X52334Y50091D01*
X52399Y50165D01*
X52466Y50236D01*
X52536Y50305D01*
X52609Y50371D01*
X52684Y50434D01*
X52762Y50494D01*
X52842Y50551D01*
X52924Y50604D01*
X53009Y50654D01*
X53095Y50701D01*
X53183Y50745D01*
X53273Y50784D01*
X53364Y50821D01*
X53457Y50853D01*
X53551Y50882D01*
X53645Y50907D01*
X53741Y50928D01*
X53838Y50946D01*
X53935Y50959D01*
X54033Y50969D01*
X54131Y50975D01*
X54229Y50977D01*
X58181Y50977D01*
X58279Y50975D01*
X58377Y50969D01*
X58475Y50959D01*
X58572Y50946D01*
X58669Y50928D01*
X58765Y50907D01*
X58859Y50882D01*
X58953Y50853D01*
X59046Y50821D01*
X59137Y50784D01*
X59227Y50745D01*
X59315Y50701D01*
X59401Y50654D01*
X59486Y50604D01*
X59568Y50551D01*
X59648Y50494D01*
X59726Y50434D01*
X59801Y50371D01*
X59874Y50305D01*
X59944Y50236D01*
X60011Y50165D01*
X60076Y50091D01*
X60137Y50014D01*
X60196Y49935D01*
X60251Y49854D01*
X60303Y49771D01*
X60351Y49685D01*
X60396Y49598D01*
X60438Y49509D01*
X60476Y49419D01*
X60510Y49327D01*
X60541Y49234D01*
X60568Y49139D01*
X60591Y49044D01*
X60611Y48947D01*
X60626Y48851D01*
X60638Y48753D01*
X60646Y48655D01*
X60650Y48557D01*
X60650Y48459D01*
X60646Y48361D01*
X60638Y48263D01*
X60626Y48165D01*
X60611Y48069D01*
X60591Y47972D01*
X60568Y47877D01*
X60541Y47782D01*
X60510Y47689D01*
X60476Y47597D01*
X60438Y47507D01*
X60396Y47418D01*
X60351Y47331D01*
X60303Y47245D01*
X60251Y47162D01*
X60196Y47081D01*
X60137Y47002D01*
X60076Y46925D01*
X60011Y46851D01*
X59944Y46780D01*
X59874Y46711D01*
X59801Y46645D01*
X59726Y46582D01*
X59648Y46522D01*
X59568Y46465D01*
X59486Y46412D01*
X59401Y46362D01*
X59315Y46315D01*
X59227Y46271D01*
X59137Y46232D01*
X59046Y46195D01*
X58953Y46163D01*
X58859Y46134D01*
X58765Y46109D01*
X58669Y46088D01*
X58572Y46070D01*
X58475Y46057D01*
X58377Y46047D01*
X58279Y46041D01*
X58181Y46039D01*
X53736Y55182D02*
X51760Y57652D01*
X60650Y57652D01*
X60650Y60121D02*
X60650Y55182D01*
X58674Y64326D02*
X51760Y66302D01*
X58674Y64326D02*
X58674Y69265D01*
X56699Y67783D02*
X60650Y67783D01*
X208111Y243376D02*
X208111Y244858D01*
X213050Y244858D01*
X213050Y241895D01*
X213048Y241806D01*
X213042Y241718D01*
X213032Y241630D01*
X213018Y241542D01*
X213000Y241455D01*
X212979Y241369D01*
X212953Y241284D01*
X212924Y241201D01*
X212891Y241118D01*
X212854Y241038D01*
X212814Y240959D01*
X212770Y240882D01*
X212723Y240806D01*
X212673Y240734D01*
X212619Y240663D01*
X212562Y240595D01*
X212502Y240529D01*
X212440Y240467D01*
X212374Y240407D01*
X212306Y240350D01*
X212235Y240296D01*
X212163Y240246D01*
X212088Y240199D01*
X212010Y240155D01*
X211931Y240115D01*
X211851Y240078D01*
X211768Y240045D01*
X211685Y240016D01*
X211600Y239990D01*
X211514Y239969D01*
X211427Y239951D01*
X211339Y239937D01*
X211251Y239927D01*
X211163Y239921D01*
X211074Y239919D01*
X206136Y239919D01*
X206047Y239921D01*
X205959Y239927D01*
X205871Y239937D01*
X205783Y239951D01*
X205696Y239969D01*
X205610Y239990D01*
X205525Y240016D01*
X205442Y240045D01*
X205359Y240078D01*
X205279Y240115D01*
X205200Y240155D01*
X205123Y240199D01*
X205047Y240246D01*
X204975Y240296D01*
X204904Y240350D01*
X204836Y240407D01*
X204770Y240467D01*
X204708Y240529D01*
X204648Y240595D01*
X204591Y240663D01*
X204537Y240734D01*
X204487Y240806D01*
X204440Y240881D01*
X204396Y240959D01*
X204356Y241038D01*
X204319Y241118D01*
X204286Y241201D01*
X204257Y241284D01*
X204231Y241369D01*
X204210Y241455D01*
X204192Y241542D01*
X204178Y241630D01*
X204168Y241718D01*
X204162Y241806D01*
X204160Y241895D01*
X204160Y244858D01*
X204160Y249673D02*
X213050Y249673D01*
X213050Y254611D02*
X204160Y249673D01*
X204160Y254611D02*
X213050Y254611D01*
X213050Y259426D02*
X204160Y259426D01*
X204160Y261896D01*
X204162Y261993D01*
X204168Y262090D01*
X204177Y262186D01*
X204190Y262282D01*
X204207Y262378D01*
X204228Y262472D01*
X204253Y262566D01*
X204281Y262659D01*
X204313Y262751D01*
X204348Y262841D01*
X204387Y262930D01*
X204429Y263017D01*
X204475Y263102D01*
X204524Y263186D01*
X204576Y263268D01*
X204632Y263347D01*
X204690Y263425D01*
X204752Y263499D01*
X204816Y263572D01*
X204883Y263642D01*
X204953Y263709D01*
X205026Y263773D01*
X205100Y263835D01*
X205178Y263893D01*
X205257Y263949D01*
X205339Y264001D01*
X205423Y264050D01*
X205508Y264096D01*
X205595Y264138D01*
X205684Y264177D01*
X205774Y264212D01*
X205866Y264244D01*
X205959Y264272D01*
X206053Y264297D01*
X206147Y264318D01*
X206243Y264335D01*
X206339Y264348D01*
X206435Y264357D01*
X206532Y264363D01*
X206629Y264365D01*
X210581Y264365D01*
X210678Y264363D01*
X210775Y264357D01*
X210871Y264348D01*
X210967Y264335D01*
X211063Y264318D01*
X211157Y264297D01*
X211251Y264272D01*
X211344Y264244D01*
X211436Y264212D01*
X211526Y264177D01*
X211615Y264138D01*
X211702Y264096D01*
X211787Y264050D01*
X211871Y264001D01*
X211953Y263949D01*
X212032Y263893D01*
X212110Y263835D01*
X212184Y263773D01*
X212257Y263709D01*
X212327Y263642D01*
X212394Y263572D01*
X212458Y263499D01*
X212520Y263425D01*
X212578Y263347D01*
X212634Y263268D01*
X212686Y263186D01*
X212735Y263102D01*
X212781Y263017D01*
X212823Y262930D01*
X212862Y262841D01*
X212897Y262751D01*
X212929Y262659D01*
X212957Y262566D01*
X212982Y262472D01*
X213003Y262378D01*
X213020Y262282D01*
X213033Y262186D01*
X213042Y262090D01*
X213048Y261993D01*
X213050Y261896D01*
X213050Y259426D01*
X35250Y41192D02*
X26360Y41192D01*
X35250Y40205D02*
X35250Y42180D01*
X26360Y42180D02*
X26360Y40205D01*
X28829Y46038D02*
X32781Y46038D01*
X28829Y46039D02*
X28731Y46041D01*
X28633Y46047D01*
X28535Y46057D01*
X28438Y46070D01*
X28341Y46088D01*
X28245Y46109D01*
X28151Y46134D01*
X28057Y46163D01*
X27964Y46195D01*
X27873Y46232D01*
X27783Y46271D01*
X27695Y46315D01*
X27609Y46362D01*
X27524Y46412D01*
X27442Y46465D01*
X27362Y46522D01*
X27284Y46582D01*
X27209Y46645D01*
X27136Y46711D01*
X27066Y46780D01*
X26999Y46851D01*
X26934Y46925D01*
X26873Y47002D01*
X26814Y47081D01*
X26759Y47162D01*
X26707Y47245D01*
X26659Y47331D01*
X26614Y47418D01*
X26572Y47507D01*
X26534Y47597D01*
X26500Y47689D01*
X26469Y47782D01*
X26442Y47877D01*
X26419Y47972D01*
X26399Y48069D01*
X26384Y48165D01*
X26372Y48263D01*
X26364Y48361D01*
X26360Y48459D01*
X26360Y48557D01*
X26364Y48655D01*
X26372Y48753D01*
X26384Y48851D01*
X26399Y48947D01*
X26419Y49044D01*
X26442Y49139D01*
X26469Y49234D01*
X26500Y49327D01*
X26534Y49419D01*
X26572Y49509D01*
X26614Y49598D01*
X26659Y49685D01*
X26707Y49771D01*
X26759Y49854D01*
X26814Y49935D01*
X26873Y50014D01*
X26934Y50091D01*
X26999Y50165D01*
X27066Y50236D01*
X27136Y50305D01*
X27209Y50371D01*
X27284Y50434D01*
X27362Y50494D01*
X27442Y50551D01*
X27524Y50604D01*
X27609Y50654D01*
X27695Y50701D01*
X27783Y50745D01*
X27873Y50784D01*
X27964Y50821D01*
X28057Y50853D01*
X28151Y50882D01*
X28245Y50907D01*
X28341Y50928D01*
X28438Y50946D01*
X28535Y50959D01*
X28633Y50969D01*
X28731Y50975D01*
X28829Y50977D01*
X32781Y50977D01*
X32879Y50975D01*
X32977Y50969D01*
X33075Y50959D01*
X33172Y50946D01*
X33269Y50928D01*
X33365Y50907D01*
X33459Y50882D01*
X33553Y50853D01*
X33646Y50821D01*
X33737Y50784D01*
X33827Y50745D01*
X33915Y50701D01*
X34001Y50654D01*
X34086Y50604D01*
X34168Y50551D01*
X34248Y50494D01*
X34326Y50434D01*
X34401Y50371D01*
X34474Y50305D01*
X34544Y50236D01*
X34611Y50165D01*
X34676Y50091D01*
X34737Y50014D01*
X34796Y49935D01*
X34851Y49854D01*
X34903Y49771D01*
X34951Y49685D01*
X34996Y49598D01*
X35038Y49509D01*
X35076Y49419D01*
X35110Y49327D01*
X35141Y49234D01*
X35168Y49139D01*
X35191Y49044D01*
X35211Y48947D01*
X35226Y48851D01*
X35238Y48753D01*
X35246Y48655D01*
X35250Y48557D01*
X35250Y48459D01*
X35246Y48361D01*
X35238Y48263D01*
X35226Y48165D01*
X35211Y48069D01*
X35191Y47972D01*
X35168Y47877D01*
X35141Y47782D01*
X35110Y47689D01*
X35076Y47597D01*
X35038Y47507D01*
X34996Y47418D01*
X34951Y47331D01*
X34903Y47245D01*
X34851Y47162D01*
X34796Y47081D01*
X34737Y47002D01*
X34676Y46925D01*
X34611Y46851D01*
X34544Y46780D01*
X34474Y46711D01*
X34401Y46645D01*
X34326Y46582D01*
X34248Y46522D01*
X34168Y46465D01*
X34086Y46412D01*
X34001Y46362D01*
X33915Y46315D01*
X33827Y46271D01*
X33737Y46232D01*
X33646Y46195D01*
X33553Y46163D01*
X33459Y46134D01*
X33365Y46109D01*
X33269Y46088D01*
X33172Y46070D01*
X33075Y46057D01*
X32977Y46047D01*
X32879Y46041D01*
X32781Y46039D01*
X28336Y55182D02*
X26360Y57652D01*
X35250Y57652D01*
X35250Y60121D02*
X35250Y55182D01*
X35250Y64326D02*
X35250Y66796D01*
X35248Y66894D01*
X35242Y66992D01*
X35232Y67090D01*
X35219Y67187D01*
X35201Y67284D01*
X35180Y67380D01*
X35155Y67474D01*
X35126Y67568D01*
X35094Y67661D01*
X35057Y67752D01*
X35018Y67842D01*
X34974Y67930D01*
X34927Y68016D01*
X34877Y68101D01*
X34824Y68183D01*
X34767Y68263D01*
X34707Y68341D01*
X34644Y68416D01*
X34578Y68489D01*
X34509Y68559D01*
X34438Y68626D01*
X34364Y68691D01*
X34287Y68752D01*
X34208Y68811D01*
X34127Y68866D01*
X34044Y68918D01*
X33958Y68966D01*
X33871Y69011D01*
X33782Y69053D01*
X33692Y69091D01*
X33600Y69125D01*
X33507Y69156D01*
X33412Y69183D01*
X33317Y69206D01*
X33220Y69226D01*
X33124Y69241D01*
X33026Y69253D01*
X32928Y69261D01*
X32830Y69265D01*
X32732Y69265D01*
X32634Y69261D01*
X32536Y69253D01*
X32438Y69241D01*
X32342Y69226D01*
X32245Y69206D01*
X32150Y69183D01*
X32055Y69156D01*
X31962Y69125D01*
X31870Y69091D01*
X31780Y69053D01*
X31691Y69011D01*
X31604Y68966D01*
X31518Y68918D01*
X31435Y68866D01*
X31354Y68811D01*
X31275Y68752D01*
X31198Y68691D01*
X31124Y68626D01*
X31053Y68559D01*
X30984Y68489D01*
X30918Y68416D01*
X30855Y68341D01*
X30795Y68263D01*
X30738Y68183D01*
X30685Y68101D01*
X30635Y68016D01*
X30588Y67930D01*
X30544Y67842D01*
X30505Y67752D01*
X30468Y67661D01*
X30436Y67568D01*
X30407Y67474D01*
X30382Y67380D01*
X30361Y67284D01*
X30343Y67187D01*
X30330Y67090D01*
X30320Y66992D01*
X30314Y66894D01*
X30312Y66796D01*
X26360Y67289D02*
X26360Y64326D01*
X26360Y67289D02*
X26362Y67376D01*
X26368Y67464D01*
X26377Y67551D01*
X26391Y67637D01*
X26408Y67723D01*
X26429Y67807D01*
X26454Y67891D01*
X26483Y67974D01*
X26515Y68055D01*
X26550Y68135D01*
X26589Y68213D01*
X26632Y68290D01*
X26678Y68364D01*
X26727Y68436D01*
X26779Y68506D01*
X26835Y68574D01*
X26893Y68639D01*
X26954Y68702D01*
X27018Y68761D01*
X27085Y68818D01*
X27153Y68872D01*
X27225Y68923D01*
X27298Y68970D01*
X27373Y69015D01*
X27451Y69056D01*
X27530Y69093D01*
X27610Y69127D01*
X27692Y69157D01*
X27775Y69184D01*
X27860Y69207D01*
X27945Y69226D01*
X28031Y69241D01*
X28118Y69253D01*
X28205Y69261D01*
X28292Y69265D01*
X28380Y69265D01*
X28467Y69261D01*
X28554Y69253D01*
X28641Y69241D01*
X28727Y69226D01*
X28812Y69207D01*
X28897Y69184D01*
X28980Y69157D01*
X29062Y69127D01*
X29142Y69093D01*
X29221Y69056D01*
X29299Y69015D01*
X29374Y68970D01*
X29447Y68923D01*
X29519Y68872D01*
X29587Y68818D01*
X29654Y68761D01*
X29718Y68702D01*
X29779Y68639D01*
X29837Y68574D01*
X29893Y68506D01*
X29945Y68436D01*
X29994Y68364D01*
X30040Y68290D01*
X30083Y68213D01*
X30122Y68135D01*
X30157Y68055D01*
X30189Y67974D01*
X30218Y67891D01*
X30243Y67807D01*
X30264Y67723D01*
X30281Y67637D01*
X30295Y67551D01*
X30304Y67464D01*
X30310Y67376D01*
X30312Y67289D01*
X30311Y67289D02*
X30311Y65314D01*
X263850Y249788D02*
X263850Y252752D01*
X263848Y252841D01*
X263842Y252929D01*
X263832Y253017D01*
X263818Y253105D01*
X263800Y253192D01*
X263779Y253278D01*
X263753Y253363D01*
X263724Y253446D01*
X263691Y253529D01*
X263654Y253609D01*
X263614Y253688D01*
X263570Y253765D01*
X263523Y253841D01*
X263473Y253913D01*
X263419Y253984D01*
X263362Y254052D01*
X263302Y254118D01*
X263240Y254180D01*
X263174Y254240D01*
X263106Y254297D01*
X263035Y254351D01*
X262963Y254401D01*
X262888Y254448D01*
X262810Y254492D01*
X262731Y254532D01*
X262651Y254569D01*
X262568Y254602D01*
X262485Y254631D01*
X262400Y254657D01*
X262314Y254678D01*
X262227Y254696D01*
X262139Y254710D01*
X262051Y254720D01*
X261963Y254726D01*
X261874Y254728D01*
X261874Y254727D02*
X260887Y254727D01*
X260887Y254728D02*
X260801Y254726D01*
X260715Y254720D01*
X260629Y254711D01*
X260544Y254698D01*
X260459Y254681D01*
X260376Y254661D01*
X260293Y254637D01*
X260211Y254609D01*
X260131Y254578D01*
X260052Y254543D01*
X259975Y254505D01*
X259899Y254463D01*
X259825Y254419D01*
X259754Y254371D01*
X259684Y254320D01*
X259617Y254266D01*
X259552Y254209D01*
X259490Y254149D01*
X259430Y254087D01*
X259373Y254022D01*
X259319Y253955D01*
X259268Y253885D01*
X259220Y253814D01*
X259176Y253740D01*
X259134Y253664D01*
X259096Y253587D01*
X259061Y253508D01*
X259030Y253428D01*
X259002Y253346D01*
X258978Y253263D01*
X258958Y253180D01*
X258941Y253095D01*
X258928Y253010D01*
X258919Y252924D01*
X258913Y252838D01*
X258911Y252752D01*
X258911Y249788D01*
X254960Y249788D01*
X254960Y254727D01*
X254960Y258438D02*
X263850Y261402D01*
X254960Y264365D01*
X238250Y41192D02*
X229360Y41192D01*
X238250Y40205D02*
X238250Y42180D01*
X229360Y42180D02*
X229360Y40205D01*
X231829Y46038D02*
X235781Y46038D01*
X231829Y46039D02*
X231731Y46041D01*
X231633Y46047D01*
X231535Y46057D01*
X231438Y46070D01*
X231341Y46088D01*
X231245Y46109D01*
X231151Y46134D01*
X231057Y46163D01*
X230964Y46195D01*
X230873Y46232D01*
X230783Y46271D01*
X230695Y46315D01*
X230609Y46362D01*
X230524Y46412D01*
X230442Y46465D01*
X230362Y46522D01*
X230284Y46582D01*
X230209Y46645D01*
X230136Y46711D01*
X230066Y46780D01*
X229999Y46851D01*
X229934Y46925D01*
X229873Y47002D01*
X229814Y47081D01*
X229759Y47162D01*
X229707Y47245D01*
X229659Y47331D01*
X229614Y47418D01*
X229572Y47507D01*
X229534Y47597D01*
X229500Y47689D01*
X229469Y47782D01*
X229442Y47877D01*
X229419Y47972D01*
X229399Y48069D01*
X229384Y48165D01*
X229372Y48263D01*
X229364Y48361D01*
X229360Y48459D01*
X229360Y48557D01*
X229364Y48655D01*
X229372Y48753D01*
X229384Y48851D01*
X229399Y48947D01*
X229419Y49044D01*
X229442Y49139D01*
X229469Y49234D01*
X229500Y49327D01*
X229534Y49419D01*
X229572Y49509D01*
X229614Y49598D01*
X229659Y49685D01*
X229707Y49771D01*
X229759Y49854D01*
X229814Y49935D01*
X229873Y50014D01*
X229934Y50091D01*
X229999Y50165D01*
X230066Y50236D01*
X230136Y50305D01*
X230209Y50371D01*
X230284Y50434D01*
X230362Y50494D01*
X230442Y50551D01*
X230524Y50604D01*
X230609Y50654D01*
X230695Y50701D01*
X230783Y50745D01*
X230873Y50784D01*
X230964Y50821D01*
X231057Y50853D01*
X231151Y50882D01*
X231245Y50907D01*
X231341Y50928D01*
X231438Y50946D01*
X231535Y50959D01*
X231633Y50969D01*
X231731Y50975D01*
X231829Y50977D01*
X235781Y50977D01*
X235879Y50975D01*
X235977Y50969D01*
X236075Y50959D01*
X236172Y50946D01*
X236269Y50928D01*
X236365Y50907D01*
X236459Y50882D01*
X236553Y50853D01*
X236646Y50821D01*
X236737Y50784D01*
X236827Y50745D01*
X236915Y50701D01*
X237001Y50654D01*
X237086Y50604D01*
X237168Y50551D01*
X237248Y50494D01*
X237326Y50434D01*
X237401Y50371D01*
X237474Y50305D01*
X237544Y50236D01*
X237611Y50165D01*
X237676Y50091D01*
X237737Y50014D01*
X237796Y49935D01*
X237851Y49854D01*
X237903Y49771D01*
X237951Y49685D01*
X237996Y49598D01*
X238038Y49509D01*
X238076Y49419D01*
X238110Y49327D01*
X238141Y49234D01*
X238168Y49139D01*
X238191Y49044D01*
X238211Y48947D01*
X238226Y48851D01*
X238238Y48753D01*
X238246Y48655D01*
X238250Y48557D01*
X238250Y48459D01*
X238246Y48361D01*
X238238Y48263D01*
X238226Y48165D01*
X238211Y48069D01*
X238191Y47972D01*
X238168Y47877D01*
X238141Y47782D01*
X238110Y47689D01*
X238076Y47597D01*
X238038Y47507D01*
X237996Y47418D01*
X237951Y47331D01*
X237903Y47245D01*
X237851Y47162D01*
X237796Y47081D01*
X237737Y47002D01*
X237676Y46925D01*
X237611Y46851D01*
X237544Y46780D01*
X237474Y46711D01*
X237401Y46645D01*
X237326Y46582D01*
X237248Y46522D01*
X237168Y46465D01*
X237086Y46412D01*
X237001Y46362D01*
X236915Y46315D01*
X236827Y46271D01*
X236737Y46232D01*
X236646Y46195D01*
X236553Y46163D01*
X236459Y46134D01*
X236365Y46109D01*
X236269Y46088D01*
X236172Y46070D01*
X236075Y46057D01*
X235977Y46047D01*
X235879Y46041D01*
X235781Y46039D01*
X238250Y55182D02*
X238250Y57652D01*
X238248Y57750D01*
X238242Y57848D01*
X238232Y57946D01*
X238219Y58043D01*
X238201Y58140D01*
X238180Y58236D01*
X238155Y58330D01*
X238126Y58424D01*
X238094Y58517D01*
X238057Y58608D01*
X238018Y58698D01*
X237974Y58786D01*
X237927Y58872D01*
X237877Y58957D01*
X237824Y59039D01*
X237767Y59119D01*
X237707Y59197D01*
X237644Y59272D01*
X237578Y59345D01*
X237509Y59415D01*
X237438Y59482D01*
X237364Y59547D01*
X237287Y59608D01*
X237208Y59667D01*
X237127Y59722D01*
X237044Y59774D01*
X236958Y59822D01*
X236871Y59867D01*
X236782Y59909D01*
X236692Y59947D01*
X236600Y59981D01*
X236507Y60012D01*
X236412Y60039D01*
X236317Y60062D01*
X236220Y60082D01*
X236124Y60097D01*
X236026Y60109D01*
X235928Y60117D01*
X235830Y60121D01*
X235732Y60121D01*
X235634Y60117D01*
X235536Y60109D01*
X235438Y60097D01*
X235342Y60082D01*
X235245Y60062D01*
X235150Y60039D01*
X235055Y60012D01*
X234962Y59981D01*
X234870Y59947D01*
X234780Y59909D01*
X234691Y59867D01*
X234604Y59822D01*
X234518Y59774D01*
X234435Y59722D01*
X234354Y59667D01*
X234275Y59608D01*
X234198Y59547D01*
X234124Y59482D01*
X234053Y59415D01*
X233984Y59345D01*
X233918Y59272D01*
X233855Y59197D01*
X233795Y59119D01*
X233738Y59039D01*
X233685Y58957D01*
X233635Y58872D01*
X233588Y58786D01*
X233544Y58698D01*
X233505Y58608D01*
X233468Y58517D01*
X233436Y58424D01*
X233407Y58330D01*
X233382Y58236D01*
X233361Y58140D01*
X233343Y58043D01*
X233330Y57946D01*
X233320Y57848D01*
X233314Y57750D01*
X233312Y57652D01*
X229360Y58145D02*
X229360Y55182D01*
X229360Y58145D02*
X229362Y58232D01*
X229368Y58320D01*
X229377Y58407D01*
X229391Y58493D01*
X229408Y58579D01*
X229429Y58663D01*
X229454Y58747D01*
X229483Y58830D01*
X229515Y58911D01*
X229550Y58991D01*
X229589Y59069D01*
X229632Y59146D01*
X229678Y59220D01*
X229727Y59292D01*
X229779Y59362D01*
X229835Y59430D01*
X229893Y59495D01*
X229954Y59558D01*
X230018Y59617D01*
X230085Y59674D01*
X230153Y59728D01*
X230225Y59779D01*
X230298Y59826D01*
X230373Y59871D01*
X230451Y59912D01*
X230530Y59949D01*
X230610Y59983D01*
X230692Y60013D01*
X230775Y60040D01*
X230860Y60063D01*
X230945Y60082D01*
X231031Y60097D01*
X231118Y60109D01*
X231205Y60117D01*
X231292Y60121D01*
X231380Y60121D01*
X231467Y60117D01*
X231554Y60109D01*
X231641Y60097D01*
X231727Y60082D01*
X231812Y60063D01*
X231897Y60040D01*
X231980Y60013D01*
X232062Y59983D01*
X232142Y59949D01*
X232221Y59912D01*
X232299Y59871D01*
X232374Y59826D01*
X232447Y59779D01*
X232519Y59728D01*
X232587Y59674D01*
X232654Y59617D01*
X232718Y59558D01*
X232779Y59495D01*
X232837Y59430D01*
X232893Y59362D01*
X232945Y59292D01*
X232994Y59220D01*
X233040Y59146D01*
X233083Y59069D01*
X233122Y58991D01*
X233157Y58911D01*
X233189Y58830D01*
X233218Y58747D01*
X233243Y58663D01*
X233264Y58579D01*
X233281Y58493D01*
X233295Y58407D01*
X233304Y58320D01*
X233310Y58232D01*
X233312Y58145D01*
X233311Y58145D02*
X233311Y56170D01*
X233311Y64326D02*
X233311Y67289D01*
X233313Y67375D01*
X233319Y67461D01*
X233328Y67547D01*
X233341Y67632D01*
X233358Y67717D01*
X233378Y67800D01*
X233402Y67883D01*
X233430Y67965D01*
X233461Y68045D01*
X233496Y68124D01*
X233534Y68201D01*
X233576Y68277D01*
X233620Y68351D01*
X233668Y68422D01*
X233719Y68492D01*
X233773Y68559D01*
X233830Y68624D01*
X233890Y68686D01*
X233952Y68746D01*
X234017Y68803D01*
X234084Y68857D01*
X234154Y68908D01*
X234225Y68956D01*
X234299Y69000D01*
X234375Y69042D01*
X234452Y69080D01*
X234531Y69115D01*
X234611Y69146D01*
X234693Y69174D01*
X234776Y69198D01*
X234859Y69218D01*
X234944Y69235D01*
X235029Y69248D01*
X235115Y69257D01*
X235201Y69263D01*
X235287Y69265D01*
X235781Y69265D01*
X235879Y69263D01*
X235977Y69257D01*
X236075Y69247D01*
X236172Y69234D01*
X236269Y69216D01*
X236365Y69195D01*
X236459Y69170D01*
X236553Y69141D01*
X236646Y69109D01*
X236737Y69072D01*
X236827Y69033D01*
X236915Y68989D01*
X237001Y68942D01*
X237086Y68892D01*
X237168Y68839D01*
X237248Y68782D01*
X237326Y68722D01*
X237401Y68659D01*
X237474Y68593D01*
X237544Y68524D01*
X237611Y68453D01*
X237676Y68379D01*
X237737Y68302D01*
X237796Y68223D01*
X237851Y68142D01*
X237903Y68059D01*
X237951Y67973D01*
X237996Y67886D01*
X238038Y67797D01*
X238076Y67707D01*
X238110Y67615D01*
X238141Y67522D01*
X238168Y67427D01*
X238191Y67332D01*
X238211Y67235D01*
X238226Y67139D01*
X238238Y67041D01*
X238246Y66943D01*
X238250Y66845D01*
X238250Y66747D01*
X238246Y66649D01*
X238238Y66551D01*
X238226Y66453D01*
X238211Y66357D01*
X238191Y66260D01*
X238168Y66165D01*
X238141Y66070D01*
X238110Y65977D01*
X238076Y65885D01*
X238038Y65795D01*
X237996Y65706D01*
X237951Y65619D01*
X237903Y65533D01*
X237851Y65450D01*
X237796Y65369D01*
X237737Y65290D01*
X237676Y65213D01*
X237611Y65139D01*
X237544Y65068D01*
X237474Y64999D01*
X237401Y64933D01*
X237326Y64870D01*
X237248Y64810D01*
X237168Y64753D01*
X237086Y64700D01*
X237001Y64650D01*
X236915Y64603D01*
X236827Y64559D01*
X236737Y64520D01*
X236646Y64483D01*
X236553Y64451D01*
X236459Y64422D01*
X236365Y64397D01*
X236269Y64376D01*
X236172Y64358D01*
X236075Y64345D01*
X235977Y64335D01*
X235879Y64329D01*
X235781Y64327D01*
X235781Y64326D02*
X233311Y64326D01*
X233187Y64328D01*
X233063Y64334D01*
X232939Y64344D01*
X232816Y64357D01*
X232693Y64375D01*
X232571Y64396D01*
X232449Y64421D01*
X232328Y64450D01*
X232209Y64483D01*
X232090Y64519D01*
X231973Y64560D01*
X231857Y64603D01*
X231742Y64651D01*
X231629Y64702D01*
X231517Y64757D01*
X231408Y64815D01*
X231300Y64876D01*
X231194Y64941D01*
X231090Y65009D01*
X230989Y65081D01*
X230889Y65155D01*
X230793Y65233D01*
X230698Y65313D01*
X230606Y65397D01*
X230517Y65483D01*
X230431Y65572D01*
X230347Y65664D01*
X230267Y65759D01*
X230189Y65855D01*
X230115Y65955D01*
X230043Y66056D01*
X229975Y66160D01*
X229910Y66266D01*
X229849Y66374D01*
X229791Y66483D01*
X229736Y66595D01*
X229685Y66708D01*
X229637Y66823D01*
X229594Y66939D01*
X229553Y67056D01*
X229517Y67175D01*
X229484Y67294D01*
X229455Y67415D01*
X229430Y67537D01*
X229409Y67659D01*
X229391Y67782D01*
X229378Y67905D01*
X229368Y68029D01*
X229362Y68153D01*
X229360Y68277D01*
X35050Y245436D02*
X26160Y245436D01*
X35050Y244449D02*
X35050Y246424D01*
X26160Y246424D02*
X26160Y244449D01*
X28629Y250282D02*
X32581Y250282D01*
X28629Y250283D02*
X28531Y250285D01*
X28433Y250291D01*
X28335Y250301D01*
X28238Y250314D01*
X28141Y250332D01*
X28045Y250353D01*
X27951Y250378D01*
X27857Y250407D01*
X27764Y250439D01*
X27673Y250476D01*
X27583Y250515D01*
X27495Y250559D01*
X27409Y250606D01*
X27324Y250656D01*
X27242Y250709D01*
X27162Y250766D01*
X27084Y250826D01*
X27009Y250889D01*
X26936Y250955D01*
X26866Y251024D01*
X26799Y251095D01*
X26734Y251169D01*
X26673Y251246D01*
X26614Y251325D01*
X26559Y251406D01*
X26507Y251489D01*
X26459Y251575D01*
X26414Y251662D01*
X26372Y251751D01*
X26334Y251841D01*
X26300Y251933D01*
X26269Y252026D01*
X26242Y252121D01*
X26219Y252216D01*
X26199Y252313D01*
X26184Y252409D01*
X26172Y252507D01*
X26164Y252605D01*
X26160Y252703D01*
X26160Y252801D01*
X26164Y252899D01*
X26172Y252997D01*
X26184Y253095D01*
X26199Y253191D01*
X26219Y253288D01*
X26242Y253383D01*
X26269Y253478D01*
X26300Y253571D01*
X26334Y253663D01*
X26372Y253753D01*
X26414Y253842D01*
X26459Y253929D01*
X26507Y254015D01*
X26559Y254098D01*
X26614Y254179D01*
X26673Y254258D01*
X26734Y254335D01*
X26799Y254409D01*
X26866Y254480D01*
X26936Y254549D01*
X27009Y254615D01*
X27084Y254678D01*
X27162Y254738D01*
X27242Y254795D01*
X27324Y254848D01*
X27409Y254898D01*
X27495Y254945D01*
X27583Y254989D01*
X27673Y255028D01*
X27764Y255065D01*
X27857Y255097D01*
X27951Y255126D01*
X28045Y255151D01*
X28141Y255172D01*
X28238Y255190D01*
X28335Y255203D01*
X28433Y255213D01*
X28531Y255219D01*
X28629Y255221D01*
X32581Y255221D01*
X32679Y255219D01*
X32777Y255213D01*
X32875Y255203D01*
X32972Y255190D01*
X33069Y255172D01*
X33165Y255151D01*
X33259Y255126D01*
X33353Y255097D01*
X33446Y255065D01*
X33537Y255028D01*
X33627Y254989D01*
X33715Y254945D01*
X33801Y254898D01*
X33886Y254848D01*
X33968Y254795D01*
X34048Y254738D01*
X34126Y254678D01*
X34201Y254615D01*
X34274Y254549D01*
X34344Y254480D01*
X34411Y254409D01*
X34476Y254335D01*
X34537Y254258D01*
X34596Y254179D01*
X34651Y254098D01*
X34703Y254015D01*
X34751Y253929D01*
X34796Y253842D01*
X34838Y253753D01*
X34876Y253663D01*
X34910Y253571D01*
X34941Y253478D01*
X34968Y253383D01*
X34991Y253288D01*
X35011Y253191D01*
X35026Y253095D01*
X35038Y252997D01*
X35046Y252899D01*
X35050Y252801D01*
X35050Y252703D01*
X35046Y252605D01*
X35038Y252507D01*
X35026Y252409D01*
X35011Y252313D01*
X34991Y252216D01*
X34968Y252121D01*
X34941Y252026D01*
X34910Y251933D01*
X34876Y251841D01*
X34838Y251751D01*
X34796Y251662D01*
X34751Y251575D01*
X34703Y251489D01*
X34651Y251406D01*
X34596Y251325D01*
X34537Y251246D01*
X34476Y251169D01*
X34411Y251095D01*
X34344Y251024D01*
X34274Y250955D01*
X34201Y250889D01*
X34126Y250826D01*
X34048Y250766D01*
X33968Y250709D01*
X33886Y250656D01*
X33801Y250606D01*
X33715Y250559D01*
X33627Y250515D01*
X33537Y250476D01*
X33446Y250439D01*
X33353Y250407D01*
X33259Y250378D01*
X33165Y250353D01*
X33069Y250332D01*
X32972Y250314D01*
X32875Y250301D01*
X32777Y250291D01*
X32679Y250285D01*
X32581Y250283D01*
X35050Y259426D02*
X35050Y262389D01*
X35048Y262478D01*
X35042Y262566D01*
X35032Y262654D01*
X35018Y262742D01*
X35000Y262829D01*
X34979Y262915D01*
X34953Y263000D01*
X34924Y263083D01*
X34891Y263166D01*
X34854Y263246D01*
X34814Y263325D01*
X34770Y263402D01*
X34723Y263478D01*
X34673Y263550D01*
X34619Y263621D01*
X34562Y263689D01*
X34502Y263755D01*
X34440Y263817D01*
X34374Y263877D01*
X34306Y263934D01*
X34235Y263988D01*
X34163Y264038D01*
X34088Y264085D01*
X34010Y264129D01*
X33931Y264169D01*
X33851Y264206D01*
X33768Y264239D01*
X33685Y264268D01*
X33600Y264294D01*
X33514Y264315D01*
X33427Y264333D01*
X33339Y264347D01*
X33251Y264357D01*
X33163Y264363D01*
X33074Y264365D01*
X32087Y264365D01*
X32001Y264363D01*
X31915Y264357D01*
X31829Y264348D01*
X31744Y264335D01*
X31659Y264318D01*
X31576Y264298D01*
X31493Y264274D01*
X31411Y264246D01*
X31331Y264215D01*
X31252Y264180D01*
X31175Y264142D01*
X31099Y264100D01*
X31025Y264056D01*
X30954Y264008D01*
X30884Y263957D01*
X30817Y263903D01*
X30752Y263846D01*
X30690Y263786D01*
X30630Y263724D01*
X30573Y263659D01*
X30519Y263592D01*
X30468Y263522D01*
X30420Y263451D01*
X30376Y263377D01*
X30334Y263301D01*
X30296Y263224D01*
X30261Y263145D01*
X30230Y263065D01*
X30202Y262983D01*
X30178Y262900D01*
X30158Y262817D01*
X30141Y262732D01*
X30128Y262647D01*
X30119Y262561D01*
X30113Y262475D01*
X30111Y262389D01*
X30111Y259426D01*
X26160Y259426D01*
X26160Y264365D01*
X254760Y41192D02*
X263650Y41192D01*
X263650Y40205D02*
X263650Y42180D01*
X254760Y42180D02*
X254760Y40205D01*
X257229Y46038D02*
X261181Y46038D01*
X257229Y46039D02*
X257131Y46041D01*
X257033Y46047D01*
X256935Y46057D01*
X256838Y46070D01*
X256741Y46088D01*
X256645Y46109D01*
X256551Y46134D01*
X256457Y46163D01*
X256364Y46195D01*
X256273Y46232D01*
X256183Y46271D01*
X256095Y46315D01*
X256009Y46362D01*
X255924Y46412D01*
X255842Y46465D01*
X255762Y46522D01*
X255684Y46582D01*
X255609Y46645D01*
X255536Y46711D01*
X255466Y46780D01*
X255399Y46851D01*
X255334Y46925D01*
X255273Y47002D01*
X255214Y47081D01*
X255159Y47162D01*
X255107Y47245D01*
X255059Y47331D01*
X255014Y47418D01*
X254972Y47507D01*
X254934Y47597D01*
X254900Y47689D01*
X254869Y47782D01*
X254842Y47877D01*
X254819Y47972D01*
X254799Y48069D01*
X254784Y48165D01*
X254772Y48263D01*
X254764Y48361D01*
X254760Y48459D01*
X254760Y48557D01*
X254764Y48655D01*
X254772Y48753D01*
X254784Y48851D01*
X254799Y48947D01*
X254819Y49044D01*
X254842Y49139D01*
X254869Y49234D01*
X254900Y49327D01*
X254934Y49419D01*
X254972Y49509D01*
X255014Y49598D01*
X255059Y49685D01*
X255107Y49771D01*
X255159Y49854D01*
X255214Y49935D01*
X255273Y50014D01*
X255334Y50091D01*
X255399Y50165D01*
X255466Y50236D01*
X255536Y50305D01*
X255609Y50371D01*
X255684Y50434D01*
X255762Y50494D01*
X255842Y50551D01*
X255924Y50604D01*
X256009Y50654D01*
X256095Y50701D01*
X256183Y50745D01*
X256273Y50784D01*
X256364Y50821D01*
X256457Y50853D01*
X256551Y50882D01*
X256645Y50907D01*
X256741Y50928D01*
X256838Y50946D01*
X256935Y50959D01*
X257033Y50969D01*
X257131Y50975D01*
X257229Y50977D01*
X261181Y50977D01*
X261279Y50975D01*
X261377Y50969D01*
X261475Y50959D01*
X261572Y50946D01*
X261669Y50928D01*
X261765Y50907D01*
X261859Y50882D01*
X261953Y50853D01*
X262046Y50821D01*
X262137Y50784D01*
X262227Y50745D01*
X262315Y50701D01*
X262401Y50654D01*
X262486Y50604D01*
X262568Y50551D01*
X262648Y50494D01*
X262726Y50434D01*
X262801Y50371D01*
X262874Y50305D01*
X262944Y50236D01*
X263011Y50165D01*
X263076Y50091D01*
X263137Y50014D01*
X263196Y49935D01*
X263251Y49854D01*
X263303Y49771D01*
X263351Y49685D01*
X263396Y49598D01*
X263438Y49509D01*
X263476Y49419D01*
X263510Y49327D01*
X263541Y49234D01*
X263568Y49139D01*
X263591Y49044D01*
X263611Y48947D01*
X263626Y48851D01*
X263638Y48753D01*
X263646Y48655D01*
X263650Y48557D01*
X263650Y48459D01*
X263646Y48361D01*
X263638Y48263D01*
X263626Y48165D01*
X263611Y48069D01*
X263591Y47972D01*
X263568Y47877D01*
X263541Y47782D01*
X263510Y47689D01*
X263476Y47597D01*
X263438Y47507D01*
X263396Y47418D01*
X263351Y47331D01*
X263303Y47245D01*
X263251Y47162D01*
X263196Y47081D01*
X263137Y47002D01*
X263076Y46925D01*
X263011Y46851D01*
X262944Y46780D01*
X262874Y46711D01*
X262801Y46645D01*
X262726Y46582D01*
X262648Y46522D01*
X262568Y46465D01*
X262486Y46412D01*
X262401Y46362D01*
X262315Y46315D01*
X262227Y46271D01*
X262137Y46232D01*
X262046Y46195D01*
X261953Y46163D01*
X261859Y46134D01*
X261765Y46109D01*
X261669Y46088D01*
X261572Y46070D01*
X261475Y46057D01*
X261377Y46047D01*
X261279Y46041D01*
X261181Y46039D01*
X263650Y55182D02*
X263650Y57652D01*
X263648Y57750D01*
X263642Y57848D01*
X263632Y57946D01*
X263619Y58043D01*
X263601Y58140D01*
X263580Y58236D01*
X263555Y58330D01*
X263526Y58424D01*
X263494Y58517D01*
X263457Y58608D01*
X263418Y58698D01*
X263374Y58786D01*
X263327Y58872D01*
X263277Y58957D01*
X263224Y59039D01*
X263167Y59119D01*
X263107Y59197D01*
X263044Y59272D01*
X262978Y59345D01*
X262909Y59415D01*
X262838Y59482D01*
X262764Y59547D01*
X262687Y59608D01*
X262608Y59667D01*
X262527Y59722D01*
X262444Y59774D01*
X262358Y59822D01*
X262271Y59867D01*
X262182Y59909D01*
X262092Y59947D01*
X262000Y59981D01*
X261907Y60012D01*
X261812Y60039D01*
X261717Y60062D01*
X261620Y60082D01*
X261524Y60097D01*
X261426Y60109D01*
X261328Y60117D01*
X261230Y60121D01*
X261132Y60121D01*
X261034Y60117D01*
X260936Y60109D01*
X260838Y60097D01*
X260742Y60082D01*
X260645Y60062D01*
X260550Y60039D01*
X260455Y60012D01*
X260362Y59981D01*
X260270Y59947D01*
X260180Y59909D01*
X260091Y59867D01*
X260004Y59822D01*
X259918Y59774D01*
X259835Y59722D01*
X259754Y59667D01*
X259675Y59608D01*
X259598Y59547D01*
X259524Y59482D01*
X259453Y59415D01*
X259384Y59345D01*
X259318Y59272D01*
X259255Y59197D01*
X259195Y59119D01*
X259138Y59039D01*
X259085Y58957D01*
X259035Y58872D01*
X258988Y58786D01*
X258944Y58698D01*
X258905Y58608D01*
X258868Y58517D01*
X258836Y58424D01*
X258807Y58330D01*
X258782Y58236D01*
X258761Y58140D01*
X258743Y58043D01*
X258730Y57946D01*
X258720Y57848D01*
X258714Y57750D01*
X258712Y57652D01*
X254760Y58145D02*
X254760Y55182D01*
X254760Y58145D02*
X254762Y58232D01*
X254768Y58320D01*
X254777Y58407D01*
X254791Y58493D01*
X254808Y58579D01*
X254829Y58663D01*
X254854Y58747D01*
X254883Y58830D01*
X254915Y58911D01*
X254950Y58991D01*
X254989Y59069D01*
X255032Y59146D01*
X255078Y59220D01*
X255127Y59292D01*
X255179Y59362D01*
X255235Y59430D01*
X255293Y59495D01*
X255354Y59558D01*
X255418Y59617D01*
X255485Y59674D01*
X255553Y59728D01*
X255625Y59779D01*
X255698Y59826D01*
X255773Y59871D01*
X255851Y59912D01*
X255930Y59949D01*
X256010Y59983D01*
X256092Y60013D01*
X256175Y60040D01*
X256260Y60063D01*
X256345Y60082D01*
X256431Y60097D01*
X256518Y60109D01*
X256605Y60117D01*
X256692Y60121D01*
X256780Y60121D01*
X256867Y60117D01*
X256954Y60109D01*
X257041Y60097D01*
X257127Y60082D01*
X257212Y60063D01*
X257297Y60040D01*
X257380Y60013D01*
X257462Y59983D01*
X257542Y59949D01*
X257621Y59912D01*
X257699Y59871D01*
X257774Y59826D01*
X257847Y59779D01*
X257919Y59728D01*
X257987Y59674D01*
X258054Y59617D01*
X258118Y59558D01*
X258179Y59495D01*
X258237Y59430D01*
X258293Y59362D01*
X258345Y59292D01*
X258394Y59220D01*
X258440Y59146D01*
X258483Y59069D01*
X258522Y58991D01*
X258557Y58911D01*
X258589Y58830D01*
X258618Y58747D01*
X258643Y58663D01*
X258664Y58579D01*
X258681Y58493D01*
X258695Y58407D01*
X258704Y58320D01*
X258710Y58232D01*
X258712Y58145D01*
X258711Y58145D02*
X258711Y56170D01*
X259699Y66302D02*
X259699Y69265D01*
X259699Y66302D02*
X259697Y66216D01*
X259691Y66130D01*
X259682Y66044D01*
X259669Y65959D01*
X259652Y65874D01*
X259632Y65791D01*
X259608Y65708D01*
X259580Y65626D01*
X259549Y65546D01*
X259514Y65467D01*
X259476Y65390D01*
X259434Y65314D01*
X259390Y65240D01*
X259342Y65169D01*
X259291Y65099D01*
X259237Y65032D01*
X259180Y64967D01*
X259120Y64905D01*
X259058Y64845D01*
X258993Y64788D01*
X258926Y64734D01*
X258856Y64683D01*
X258785Y64635D01*
X258711Y64591D01*
X258635Y64549D01*
X258558Y64511D01*
X258479Y64476D01*
X258399Y64445D01*
X258317Y64417D01*
X258234Y64393D01*
X258151Y64373D01*
X258066Y64356D01*
X257981Y64343D01*
X257895Y64334D01*
X257809Y64328D01*
X257723Y64326D01*
X257229Y64326D01*
X257229Y64327D02*
X257131Y64329D01*
X257033Y64335D01*
X256935Y64345D01*
X256838Y64358D01*
X256741Y64376D01*
X256645Y64397D01*
X256551Y64422D01*
X256457Y64451D01*
X256364Y64483D01*
X256273Y64520D01*
X256183Y64559D01*
X256095Y64603D01*
X256009Y64650D01*
X255924Y64700D01*
X255842Y64753D01*
X255762Y64810D01*
X255684Y64870D01*
X255609Y64933D01*
X255536Y64999D01*
X255466Y65068D01*
X255399Y65139D01*
X255334Y65213D01*
X255273Y65290D01*
X255214Y65369D01*
X255159Y65450D01*
X255107Y65533D01*
X255059Y65619D01*
X255014Y65706D01*
X254972Y65795D01*
X254934Y65885D01*
X254900Y65977D01*
X254869Y66070D01*
X254842Y66165D01*
X254819Y66260D01*
X254799Y66357D01*
X254784Y66453D01*
X254772Y66551D01*
X254764Y66649D01*
X254760Y66747D01*
X254760Y66845D01*
X254764Y66943D01*
X254772Y67041D01*
X254784Y67139D01*
X254799Y67235D01*
X254819Y67332D01*
X254842Y67427D01*
X254869Y67522D01*
X254900Y67615D01*
X254934Y67707D01*
X254972Y67797D01*
X255014Y67886D01*
X255059Y67973D01*
X255107Y68059D01*
X255159Y68142D01*
X255214Y68223D01*
X255273Y68302D01*
X255334Y68379D01*
X255399Y68453D01*
X255466Y68524D01*
X255536Y68593D01*
X255609Y68659D01*
X255684Y68722D01*
X255762Y68782D01*
X255842Y68839D01*
X255924Y68892D01*
X256009Y68942D01*
X256095Y68989D01*
X256183Y69033D01*
X256273Y69072D01*
X256364Y69109D01*
X256457Y69141D01*
X256551Y69170D01*
X256645Y69195D01*
X256741Y69216D01*
X256838Y69234D01*
X256935Y69247D01*
X257033Y69257D01*
X257131Y69263D01*
X257229Y69265D01*
X259699Y69265D01*
X259823Y69263D01*
X259947Y69257D01*
X260071Y69247D01*
X260194Y69234D01*
X260317Y69216D01*
X260439Y69195D01*
X260561Y69170D01*
X260682Y69141D01*
X260801Y69108D01*
X260920Y69072D01*
X261037Y69031D01*
X261153Y68988D01*
X261268Y68940D01*
X261381Y68889D01*
X261493Y68834D01*
X261602Y68776D01*
X261710Y68715D01*
X261816Y68650D01*
X261920Y68582D01*
X262021Y68510D01*
X262121Y68436D01*
X262217Y68358D01*
X262312Y68278D01*
X262404Y68194D01*
X262493Y68108D01*
X262579Y68019D01*
X262663Y67927D01*
X262743Y67832D01*
X262821Y67736D01*
X262895Y67636D01*
X262967Y67535D01*
X263035Y67431D01*
X263100Y67325D01*
X263161Y67217D01*
X263219Y67108D01*
X263274Y66996D01*
X263325Y66883D01*
X263373Y66768D01*
X263416Y66652D01*
X263457Y66535D01*
X263493Y66416D01*
X263526Y66297D01*
X263555Y66176D01*
X263580Y66054D01*
X263601Y65932D01*
X263619Y65809D01*
X263632Y65686D01*
X263642Y65562D01*
X263648Y65438D01*
X263650Y65314D01*
X111250Y41192D02*
X102360Y41192D01*
X111250Y40205D02*
X111250Y42180D01*
X102360Y42180D02*
X102360Y40205D01*
X104829Y46038D02*
X108781Y46038D01*
X104829Y46039D02*
X104731Y46041D01*
X104633Y46047D01*
X104535Y46057D01*
X104438Y46070D01*
X104341Y46088D01*
X104245Y46109D01*
X104151Y46134D01*
X104057Y46163D01*
X103964Y46195D01*
X103873Y46232D01*
X103783Y46271D01*
X103695Y46315D01*
X103609Y46362D01*
X103524Y46412D01*
X103442Y46465D01*
X103362Y46522D01*
X103284Y46582D01*
X103209Y46645D01*
X103136Y46711D01*
X103066Y46780D01*
X102999Y46851D01*
X102934Y46925D01*
X102873Y47002D01*
X102814Y47081D01*
X102759Y47162D01*
X102707Y47245D01*
X102659Y47331D01*
X102614Y47418D01*
X102572Y47507D01*
X102534Y47597D01*
X102500Y47689D01*
X102469Y47782D01*
X102442Y47877D01*
X102419Y47972D01*
X102399Y48069D01*
X102384Y48165D01*
X102372Y48263D01*
X102364Y48361D01*
X102360Y48459D01*
X102360Y48557D01*
X102364Y48655D01*
X102372Y48753D01*
X102384Y48851D01*
X102399Y48947D01*
X102419Y49044D01*
X102442Y49139D01*
X102469Y49234D01*
X102500Y49327D01*
X102534Y49419D01*
X102572Y49509D01*
X102614Y49598D01*
X102659Y49685D01*
X102707Y49771D01*
X102759Y49854D01*
X102814Y49935D01*
X102873Y50014D01*
X102934Y50091D01*
X102999Y50165D01*
X103066Y50236D01*
X103136Y50305D01*
X103209Y50371D01*
X103284Y50434D01*
X103362Y50494D01*
X103442Y50551D01*
X103524Y50604D01*
X103609Y50654D01*
X103695Y50701D01*
X103783Y50745D01*
X103873Y50784D01*
X103964Y50821D01*
X104057Y50853D01*
X104151Y50882D01*
X104245Y50907D01*
X104341Y50928D01*
X104438Y50946D01*
X104535Y50959D01*
X104633Y50969D01*
X104731Y50975D01*
X104829Y50977D01*
X108781Y50977D01*
X108879Y50975D01*
X108977Y50969D01*
X109075Y50959D01*
X109172Y50946D01*
X109269Y50928D01*
X109365Y50907D01*
X109459Y50882D01*
X109553Y50853D01*
X109646Y50821D01*
X109737Y50784D01*
X109827Y50745D01*
X109915Y50701D01*
X110001Y50654D01*
X110086Y50604D01*
X110168Y50551D01*
X110248Y50494D01*
X110326Y50434D01*
X110401Y50371D01*
X110474Y50305D01*
X110544Y50236D01*
X110611Y50165D01*
X110676Y50091D01*
X110737Y50014D01*
X110796Y49935D01*
X110851Y49854D01*
X110903Y49771D01*
X110951Y49685D01*
X110996Y49598D01*
X111038Y49509D01*
X111076Y49419D01*
X111110Y49327D01*
X111141Y49234D01*
X111168Y49139D01*
X111191Y49044D01*
X111211Y48947D01*
X111226Y48851D01*
X111238Y48753D01*
X111246Y48655D01*
X111250Y48557D01*
X111250Y48459D01*
X111246Y48361D01*
X111238Y48263D01*
X111226Y48165D01*
X111211Y48069D01*
X111191Y47972D01*
X111168Y47877D01*
X111141Y47782D01*
X111110Y47689D01*
X111076Y47597D01*
X111038Y47507D01*
X110996Y47418D01*
X110951Y47331D01*
X110903Y47245D01*
X110851Y47162D01*
X110796Y47081D01*
X110737Y47002D01*
X110676Y46925D01*
X110611Y46851D01*
X110544Y46780D01*
X110474Y46711D01*
X110401Y46645D01*
X110326Y46582D01*
X110248Y46522D01*
X110168Y46465D01*
X110086Y46412D01*
X110001Y46362D01*
X109915Y46315D01*
X109827Y46271D01*
X109737Y46232D01*
X109646Y46195D01*
X109553Y46163D01*
X109459Y46134D01*
X109365Y46109D01*
X109269Y46088D01*
X109172Y46070D01*
X109075Y46057D01*
X108977Y46047D01*
X108879Y46041D01*
X108781Y46039D01*
X104336Y55182D02*
X102360Y57652D01*
X111250Y57652D01*
X111250Y60121D02*
X111250Y55182D01*
X106311Y64326D02*
X106311Y67289D01*
X106313Y67375D01*
X106319Y67461D01*
X106328Y67547D01*
X106341Y67632D01*
X106358Y67717D01*
X106378Y67800D01*
X106402Y67883D01*
X106430Y67965D01*
X106461Y68045D01*
X106496Y68124D01*
X106534Y68201D01*
X106576Y68277D01*
X106620Y68351D01*
X106668Y68422D01*
X106719Y68492D01*
X106773Y68559D01*
X106830Y68624D01*
X106890Y68686D01*
X106952Y68746D01*
X107017Y68803D01*
X107084Y68857D01*
X107154Y68908D01*
X107225Y68956D01*
X107299Y69000D01*
X107375Y69042D01*
X107452Y69080D01*
X107531Y69115D01*
X107611Y69146D01*
X107693Y69174D01*
X107776Y69198D01*
X107859Y69218D01*
X107944Y69235D01*
X108029Y69248D01*
X108115Y69257D01*
X108201Y69263D01*
X108287Y69265D01*
X108781Y69265D01*
X108879Y69263D01*
X108977Y69257D01*
X109075Y69247D01*
X109172Y69234D01*
X109269Y69216D01*
X109365Y69195D01*
X109459Y69170D01*
X109553Y69141D01*
X109646Y69109D01*
X109737Y69072D01*
X109827Y69033D01*
X109915Y68989D01*
X110001Y68942D01*
X110086Y68892D01*
X110168Y68839D01*
X110248Y68782D01*
X110326Y68722D01*
X110401Y68659D01*
X110474Y68593D01*
X110544Y68524D01*
X110611Y68453D01*
X110676Y68379D01*
X110737Y68302D01*
X110796Y68223D01*
X110851Y68142D01*
X110903Y68059D01*
X110951Y67973D01*
X110996Y67886D01*
X111038Y67797D01*
X111076Y67707D01*
X111110Y67615D01*
X111141Y67522D01*
X111168Y67427D01*
X111191Y67332D01*
X111211Y67235D01*
X111226Y67139D01*
X111238Y67041D01*
X111246Y66943D01*
X111250Y66845D01*
X111250Y66747D01*
X111246Y66649D01*
X111238Y66551D01*
X111226Y66453D01*
X111211Y66357D01*
X111191Y66260D01*
X111168Y66165D01*
X111141Y66070D01*
X111110Y65977D01*
X111076Y65885D01*
X111038Y65795D01*
X110996Y65706D01*
X110951Y65619D01*
X110903Y65533D01*
X110851Y65450D01*
X110796Y65369D01*
X110737Y65290D01*
X110676Y65213D01*
X110611Y65139D01*
X110544Y65068D01*
X110474Y64999D01*
X110401Y64933D01*
X110326Y64870D01*
X110248Y64810D01*
X110168Y64753D01*
X110086Y64700D01*
X110001Y64650D01*
X109915Y64603D01*
X109827Y64559D01*
X109737Y64520D01*
X109646Y64483D01*
X109553Y64451D01*
X109459Y64422D01*
X109365Y64397D01*
X109269Y64376D01*
X109172Y64358D01*
X109075Y64345D01*
X108977Y64335D01*
X108879Y64329D01*
X108781Y64327D01*
X108781Y64326D02*
X106311Y64326D01*
X106187Y64328D01*
X106063Y64334D01*
X105939Y64344D01*
X105816Y64357D01*
X105693Y64375D01*
X105571Y64396D01*
X105449Y64421D01*
X105328Y64450D01*
X105209Y64483D01*
X105090Y64519D01*
X104973Y64560D01*
X104857Y64603D01*
X104742Y64651D01*
X104629Y64702D01*
X104517Y64757D01*
X104408Y64815D01*
X104300Y64876D01*
X104194Y64941D01*
X104090Y65009D01*
X103989Y65081D01*
X103889Y65155D01*
X103793Y65233D01*
X103698Y65313D01*
X103606Y65397D01*
X103517Y65483D01*
X103431Y65572D01*
X103347Y65664D01*
X103267Y65759D01*
X103189Y65855D01*
X103115Y65955D01*
X103043Y66056D01*
X102975Y66160D01*
X102910Y66266D01*
X102849Y66374D01*
X102791Y66483D01*
X102736Y66595D01*
X102685Y66708D01*
X102637Y66823D01*
X102594Y66939D01*
X102553Y67056D01*
X102517Y67175D01*
X102484Y67294D01*
X102455Y67415D01*
X102430Y67537D01*
X102409Y67659D01*
X102391Y67782D01*
X102378Y67905D01*
X102368Y68029D01*
X102362Y68153D01*
X102360Y68277D01*
X60450Y245436D02*
X51560Y245436D01*
X60450Y244449D02*
X60450Y246424D01*
X51560Y246424D02*
X51560Y244449D01*
X54029Y250282D02*
X57981Y250282D01*
X54029Y250283D02*
X53931Y250285D01*
X53833Y250291D01*
X53735Y250301D01*
X53638Y250314D01*
X53541Y250332D01*
X53445Y250353D01*
X53351Y250378D01*
X53257Y250407D01*
X53164Y250439D01*
X53073Y250476D01*
X52983Y250515D01*
X52895Y250559D01*
X52809Y250606D01*
X52724Y250656D01*
X52642Y250709D01*
X52562Y250766D01*
X52484Y250826D01*
X52409Y250889D01*
X52336Y250955D01*
X52266Y251024D01*
X52199Y251095D01*
X52134Y251169D01*
X52073Y251246D01*
X52014Y251325D01*
X51959Y251406D01*
X51907Y251489D01*
X51859Y251575D01*
X51814Y251662D01*
X51772Y251751D01*
X51734Y251841D01*
X51700Y251933D01*
X51669Y252026D01*
X51642Y252121D01*
X51619Y252216D01*
X51599Y252313D01*
X51584Y252409D01*
X51572Y252507D01*
X51564Y252605D01*
X51560Y252703D01*
X51560Y252801D01*
X51564Y252899D01*
X51572Y252997D01*
X51584Y253095D01*
X51599Y253191D01*
X51619Y253288D01*
X51642Y253383D01*
X51669Y253478D01*
X51700Y253571D01*
X51734Y253663D01*
X51772Y253753D01*
X51814Y253842D01*
X51859Y253929D01*
X51907Y254015D01*
X51959Y254098D01*
X52014Y254179D01*
X52073Y254258D01*
X52134Y254335D01*
X52199Y254409D01*
X52266Y254480D01*
X52336Y254549D01*
X52409Y254615D01*
X52484Y254678D01*
X52562Y254738D01*
X52642Y254795D01*
X52724Y254848D01*
X52809Y254898D01*
X52895Y254945D01*
X52983Y254989D01*
X53073Y255028D01*
X53164Y255065D01*
X53257Y255097D01*
X53351Y255126D01*
X53445Y255151D01*
X53541Y255172D01*
X53638Y255190D01*
X53735Y255203D01*
X53833Y255213D01*
X53931Y255219D01*
X54029Y255221D01*
X57981Y255221D01*
X58079Y255219D01*
X58177Y255213D01*
X58275Y255203D01*
X58372Y255190D01*
X58469Y255172D01*
X58565Y255151D01*
X58659Y255126D01*
X58753Y255097D01*
X58846Y255065D01*
X58937Y255028D01*
X59027Y254989D01*
X59115Y254945D01*
X59201Y254898D01*
X59286Y254848D01*
X59368Y254795D01*
X59448Y254738D01*
X59526Y254678D01*
X59601Y254615D01*
X59674Y254549D01*
X59744Y254480D01*
X59811Y254409D01*
X59876Y254335D01*
X59937Y254258D01*
X59996Y254179D01*
X60051Y254098D01*
X60103Y254015D01*
X60151Y253929D01*
X60196Y253842D01*
X60238Y253753D01*
X60276Y253663D01*
X60310Y253571D01*
X60341Y253478D01*
X60368Y253383D01*
X60391Y253288D01*
X60411Y253191D01*
X60426Y253095D01*
X60438Y252997D01*
X60446Y252899D01*
X60450Y252801D01*
X60450Y252703D01*
X60446Y252605D01*
X60438Y252507D01*
X60426Y252409D01*
X60411Y252313D01*
X60391Y252216D01*
X60368Y252121D01*
X60341Y252026D01*
X60310Y251933D01*
X60276Y251841D01*
X60238Y251751D01*
X60196Y251662D01*
X60151Y251575D01*
X60103Y251489D01*
X60051Y251406D01*
X59996Y251325D01*
X59937Y251246D01*
X59876Y251169D01*
X59811Y251095D01*
X59744Y251024D01*
X59674Y250955D01*
X59601Y250889D01*
X59526Y250826D01*
X59448Y250766D01*
X59368Y250709D01*
X59286Y250656D01*
X59201Y250606D01*
X59115Y250559D01*
X59027Y250515D01*
X58937Y250476D01*
X58846Y250439D01*
X58753Y250407D01*
X58659Y250378D01*
X58565Y250353D01*
X58469Y250332D01*
X58372Y250314D01*
X58275Y250301D01*
X58177Y250291D01*
X58079Y250285D01*
X57981Y250283D01*
X58474Y259426D02*
X51560Y261402D01*
X58474Y259426D02*
X58474Y264365D01*
X56499Y262883D02*
X60450Y262883D01*
X153160Y245436D02*
X162050Y245436D01*
X162050Y244449D02*
X162050Y246424D01*
X153160Y246424D02*
X153160Y244449D01*
X155629Y250282D02*
X159581Y250282D01*
X155629Y250283D02*
X155531Y250285D01*
X155433Y250291D01*
X155335Y250301D01*
X155238Y250314D01*
X155141Y250332D01*
X155045Y250353D01*
X154951Y250378D01*
X154857Y250407D01*
X154764Y250439D01*
X154673Y250476D01*
X154583Y250515D01*
X154495Y250559D01*
X154409Y250606D01*
X154324Y250656D01*
X154242Y250709D01*
X154162Y250766D01*
X154084Y250826D01*
X154009Y250889D01*
X153936Y250955D01*
X153866Y251024D01*
X153799Y251095D01*
X153734Y251169D01*
X153673Y251246D01*
X153614Y251325D01*
X153559Y251406D01*
X153507Y251489D01*
X153459Y251575D01*
X153414Y251662D01*
X153372Y251751D01*
X153334Y251841D01*
X153300Y251933D01*
X153269Y252026D01*
X153242Y252121D01*
X153219Y252216D01*
X153199Y252313D01*
X153184Y252409D01*
X153172Y252507D01*
X153164Y252605D01*
X153160Y252703D01*
X153160Y252801D01*
X153164Y252899D01*
X153172Y252997D01*
X153184Y253095D01*
X153199Y253191D01*
X153219Y253288D01*
X153242Y253383D01*
X153269Y253478D01*
X153300Y253571D01*
X153334Y253663D01*
X153372Y253753D01*
X153414Y253842D01*
X153459Y253929D01*
X153507Y254015D01*
X153559Y254098D01*
X153614Y254179D01*
X153673Y254258D01*
X153734Y254335D01*
X153799Y254409D01*
X153866Y254480D01*
X153936Y254549D01*
X154009Y254615D01*
X154084Y254678D01*
X154162Y254738D01*
X154242Y254795D01*
X154324Y254848D01*
X154409Y254898D01*
X154495Y254945D01*
X154583Y254989D01*
X154673Y255028D01*
X154764Y255065D01*
X154857Y255097D01*
X154951Y255126D01*
X155045Y255151D01*
X155141Y255172D01*
X155238Y255190D01*
X155335Y255203D01*
X155433Y255213D01*
X155531Y255219D01*
X155629Y255221D01*
X159581Y255221D01*
X159679Y255219D01*
X159777Y255213D01*
X159875Y255203D01*
X159972Y255190D01*
X160069Y255172D01*
X160165Y255151D01*
X160259Y255126D01*
X160353Y255097D01*
X160446Y255065D01*
X160537Y255028D01*
X160627Y254989D01*
X160715Y254945D01*
X160801Y254898D01*
X160886Y254848D01*
X160968Y254795D01*
X161048Y254738D01*
X161126Y254678D01*
X161201Y254615D01*
X161274Y254549D01*
X161344Y254480D01*
X161411Y254409D01*
X161476Y254335D01*
X161537Y254258D01*
X161596Y254179D01*
X161651Y254098D01*
X161703Y254015D01*
X161751Y253929D01*
X161796Y253842D01*
X161838Y253753D01*
X161876Y253663D01*
X161910Y253571D01*
X161941Y253478D01*
X161968Y253383D01*
X161991Y253288D01*
X162011Y253191D01*
X162026Y253095D01*
X162038Y252997D01*
X162046Y252899D01*
X162050Y252801D01*
X162050Y252703D01*
X162046Y252605D01*
X162038Y252507D01*
X162026Y252409D01*
X162011Y252313D01*
X161991Y252216D01*
X161968Y252121D01*
X161941Y252026D01*
X161910Y251933D01*
X161876Y251841D01*
X161838Y251751D01*
X161796Y251662D01*
X161751Y251575D01*
X161703Y251489D01*
X161651Y251406D01*
X161596Y251325D01*
X161537Y251246D01*
X161476Y251169D01*
X161411Y251095D01*
X161344Y251024D01*
X161274Y250955D01*
X161201Y250889D01*
X161126Y250826D01*
X161048Y250766D01*
X160968Y250709D01*
X160886Y250656D01*
X160801Y250606D01*
X160715Y250559D01*
X160627Y250515D01*
X160537Y250476D01*
X160446Y250439D01*
X160353Y250407D01*
X160259Y250378D01*
X160165Y250353D01*
X160069Y250332D01*
X159972Y250314D01*
X159875Y250301D01*
X159777Y250291D01*
X159679Y250285D01*
X159581Y250283D01*
X157605Y259426D02*
X157430Y259428D01*
X157255Y259434D01*
X157081Y259445D01*
X156906Y259459D01*
X156733Y259478D01*
X156559Y259501D01*
X156386Y259528D01*
X156214Y259559D01*
X156043Y259594D01*
X155873Y259634D01*
X155703Y259677D01*
X155535Y259725D01*
X155368Y259776D01*
X155202Y259831D01*
X155037Y259891D01*
X154874Y259954D01*
X154713Y260021D01*
X154553Y260092D01*
X154395Y260167D01*
X154394Y260168D02*
X154316Y260197D01*
X154238Y260229D01*
X154163Y260266D01*
X154089Y260305D01*
X154017Y260348D01*
X153946Y260394D01*
X153879Y260444D01*
X153813Y260496D01*
X153750Y260551D01*
X153690Y260610D01*
X153632Y260671D01*
X153577Y260734D01*
X153525Y260800D01*
X153476Y260869D01*
X153431Y260939D01*
X153388Y261011D01*
X153349Y261086D01*
X153314Y261162D01*
X153282Y261239D01*
X153254Y261318D01*
X153229Y261399D01*
X153208Y261480D01*
X153191Y261562D01*
X153177Y261645D01*
X153168Y261728D01*
X153162Y261812D01*
X153160Y261896D01*
X153162Y261980D01*
X153168Y262064D01*
X153177Y262147D01*
X153191Y262230D01*
X153208Y262312D01*
X153229Y262393D01*
X153254Y262474D01*
X153282Y262553D01*
X153314Y262630D01*
X153349Y262706D01*
X153388Y262781D01*
X153431Y262853D01*
X153476Y262924D01*
X153525Y262992D01*
X153577Y263058D01*
X153632Y263121D01*
X153690Y263182D01*
X153750Y263241D01*
X153813Y263296D01*
X153879Y263348D01*
X153946Y263398D01*
X154017Y263444D01*
X154089Y263487D01*
X154163Y263526D01*
X154238Y263563D01*
X154316Y263595D01*
X154395Y263624D01*
X154553Y263699D01*
X154713Y263770D01*
X154874Y263837D01*
X155037Y263900D01*
X155202Y263960D01*
X155368Y264015D01*
X155535Y264066D01*
X155703Y264114D01*
X155873Y264157D01*
X156043Y264197D01*
X156214Y264232D01*
X156386Y264263D01*
X156559Y264290D01*
X156733Y264313D01*
X156906Y264332D01*
X157081Y264346D01*
X157255Y264357D01*
X157430Y264363D01*
X157605Y264365D01*
X157605Y259426D02*
X157780Y259428D01*
X157955Y259434D01*
X158129Y259445D01*
X158304Y259459D01*
X158477Y259478D01*
X158651Y259501D01*
X158824Y259528D01*
X158996Y259559D01*
X159167Y259594D01*
X159337Y259634D01*
X159507Y259677D01*
X159675Y259725D01*
X159842Y259776D01*
X160008Y259831D01*
X160173Y259891D01*
X160336Y259954D01*
X160497Y260021D01*
X160657Y260092D01*
X160815Y260167D01*
X160816Y260168D02*
X160894Y260197D01*
X160972Y260229D01*
X161047Y260266D01*
X161121Y260305D01*
X161194Y260348D01*
X161264Y260394D01*
X161331Y260444D01*
X161397Y260496D01*
X161460Y260552D01*
X161521Y260610D01*
X161578Y260671D01*
X161633Y260734D01*
X161685Y260800D01*
X161734Y260869D01*
X161779Y260939D01*
X161822Y261011D01*
X161861Y261086D01*
X161896Y261162D01*
X161928Y261240D01*
X161956Y261319D01*
X161981Y261399D01*
X162002Y261480D01*
X162019Y261562D01*
X162033Y261645D01*
X162042Y261728D01*
X162048Y261812D01*
X162050Y261896D01*
X160815Y263624D02*
X160657Y263699D01*
X160497Y263770D01*
X160336Y263837D01*
X160173Y263900D01*
X160008Y263960D01*
X159842Y264015D01*
X159675Y264066D01*
X159507Y264114D01*
X159337Y264157D01*
X159167Y264197D01*
X158996Y264232D01*
X158824Y264263D01*
X158651Y264290D01*
X158477Y264313D01*
X158304Y264332D01*
X158129Y264346D01*
X157955Y264357D01*
X157780Y264363D01*
X157605Y264365D01*
X160816Y263624D02*
X160894Y263595D01*
X160972Y263563D01*
X161047Y263526D01*
X161121Y263487D01*
X161194Y263444D01*
X161264Y263398D01*
X161331Y263348D01*
X161397Y263296D01*
X161460Y263240D01*
X161520Y263182D01*
X161578Y263121D01*
X161633Y263058D01*
X161685Y262992D01*
X161734Y262923D01*
X161779Y262853D01*
X161822Y262781D01*
X161861Y262706D01*
X161896Y262630D01*
X161928Y262553D01*
X161956Y262474D01*
X161981Y262393D01*
X162002Y262312D01*
X162019Y262230D01*
X162033Y262147D01*
X162042Y262064D01*
X162048Y261980D01*
X162050Y261896D01*
X160074Y259920D02*
X155136Y263871D01*
X111250Y245436D02*
X102360Y245436D01*
X111250Y244449D02*
X111250Y246424D01*
X102360Y246424D02*
X102360Y244449D01*
X104829Y250282D02*
X108781Y250282D01*
X104829Y250283D02*
X104731Y250285D01*
X104633Y250291D01*
X104535Y250301D01*
X104438Y250314D01*
X104341Y250332D01*
X104245Y250353D01*
X104151Y250378D01*
X104057Y250407D01*
X103964Y250439D01*
X103873Y250476D01*
X103783Y250515D01*
X103695Y250559D01*
X103609Y250606D01*
X103524Y250656D01*
X103442Y250709D01*
X103362Y250766D01*
X103284Y250826D01*
X103209Y250889D01*
X103136Y250955D01*
X103066Y251024D01*
X102999Y251095D01*
X102934Y251169D01*
X102873Y251246D01*
X102814Y251325D01*
X102759Y251406D01*
X102707Y251489D01*
X102659Y251575D01*
X102614Y251662D01*
X102572Y251751D01*
X102534Y251841D01*
X102500Y251933D01*
X102469Y252026D01*
X102442Y252121D01*
X102419Y252216D01*
X102399Y252313D01*
X102384Y252409D01*
X102372Y252507D01*
X102364Y252605D01*
X102360Y252703D01*
X102360Y252801D01*
X102364Y252899D01*
X102372Y252997D01*
X102384Y253095D01*
X102399Y253191D01*
X102419Y253288D01*
X102442Y253383D01*
X102469Y253478D01*
X102500Y253571D01*
X102534Y253663D01*
X102572Y253753D01*
X102614Y253842D01*
X102659Y253929D01*
X102707Y254015D01*
X102759Y254098D01*
X102814Y254179D01*
X102873Y254258D01*
X102934Y254335D01*
X102999Y254409D01*
X103066Y254480D01*
X103136Y254549D01*
X103209Y254615D01*
X103284Y254678D01*
X103362Y254738D01*
X103442Y254795D01*
X103524Y254848D01*
X103609Y254898D01*
X103695Y254945D01*
X103783Y254989D01*
X103873Y255028D01*
X103964Y255065D01*
X104057Y255097D01*
X104151Y255126D01*
X104245Y255151D01*
X104341Y255172D01*
X104438Y255190D01*
X104535Y255203D01*
X104633Y255213D01*
X104731Y255219D01*
X104829Y255221D01*
X108781Y255221D01*
X108879Y255219D01*
X108977Y255213D01*
X109075Y255203D01*
X109172Y255190D01*
X109269Y255172D01*
X109365Y255151D01*
X109459Y255126D01*
X109553Y255097D01*
X109646Y255065D01*
X109737Y255028D01*
X109827Y254989D01*
X109915Y254945D01*
X110001Y254898D01*
X110086Y254848D01*
X110168Y254795D01*
X110248Y254738D01*
X110326Y254678D01*
X110401Y254615D01*
X110474Y254549D01*
X110544Y254480D01*
X110611Y254409D01*
X110676Y254335D01*
X110737Y254258D01*
X110796Y254179D01*
X110851Y254098D01*
X110903Y254015D01*
X110951Y253929D01*
X110996Y253842D01*
X111038Y253753D01*
X111076Y253663D01*
X111110Y253571D01*
X111141Y253478D01*
X111168Y253383D01*
X111191Y253288D01*
X111211Y253191D01*
X111226Y253095D01*
X111238Y252997D01*
X111246Y252899D01*
X111250Y252801D01*
X111250Y252703D01*
X111246Y252605D01*
X111238Y252507D01*
X111226Y252409D01*
X111211Y252313D01*
X111191Y252216D01*
X111168Y252121D01*
X111141Y252026D01*
X111110Y251933D01*
X111076Y251841D01*
X111038Y251751D01*
X110996Y251662D01*
X110951Y251575D01*
X110903Y251489D01*
X110851Y251406D01*
X110796Y251325D01*
X110737Y251246D01*
X110676Y251169D01*
X110611Y251095D01*
X110544Y251024D01*
X110474Y250955D01*
X110401Y250889D01*
X110326Y250826D01*
X110248Y250766D01*
X110168Y250709D01*
X110086Y250656D01*
X110001Y250606D01*
X109915Y250559D01*
X109827Y250515D01*
X109737Y250476D01*
X109646Y250439D01*
X109553Y250407D01*
X109459Y250378D01*
X109365Y250353D01*
X109269Y250332D01*
X109172Y250314D01*
X109075Y250301D01*
X108977Y250291D01*
X108879Y250285D01*
X108781Y250283D01*
X102360Y262143D02*
X102362Y262235D01*
X102368Y262327D01*
X102377Y262418D01*
X102390Y262509D01*
X102407Y262599D01*
X102428Y262689D01*
X102452Y262777D01*
X102480Y262865D01*
X102512Y262951D01*
X102547Y263036D01*
X102586Y263119D01*
X102628Y263201D01*
X102673Y263281D01*
X102722Y263359D01*
X102774Y263435D01*
X102829Y263508D01*
X102887Y263580D01*
X102947Y263649D01*
X103011Y263715D01*
X103077Y263779D01*
X103146Y263839D01*
X103218Y263897D01*
X103291Y263952D01*
X103367Y264004D01*
X103445Y264053D01*
X103525Y264098D01*
X103607Y264140D01*
X103690Y264179D01*
X103775Y264214D01*
X103861Y264246D01*
X103949Y264274D01*
X104037Y264298D01*
X104127Y264319D01*
X104217Y264336D01*
X104308Y264349D01*
X104399Y264358D01*
X104491Y264364D01*
X104583Y264366D01*
X102360Y262143D02*
X102362Y262037D01*
X102368Y261932D01*
X102378Y261827D01*
X102391Y261722D01*
X102409Y261618D01*
X102430Y261515D01*
X102455Y261412D01*
X102484Y261310D01*
X102517Y261210D01*
X102553Y261111D01*
X102593Y261013D01*
X102637Y260917D01*
X102684Y260822D01*
X102734Y260730D01*
X102788Y260639D01*
X102846Y260550D01*
X102906Y260464D01*
X102970Y260380D01*
X103036Y260298D01*
X103106Y260218D01*
X103179Y260142D01*
X103254Y260068D01*
X103332Y259997D01*
X103413Y259929D01*
X103496Y259863D01*
X103582Y259801D01*
X103669Y259743D01*
X103759Y259687D01*
X103851Y259635D01*
X103945Y259586D01*
X104040Y259541D01*
X104137Y259499D01*
X104236Y259461D01*
X104335Y259427D01*
X106312Y263624D02*
X106243Y263693D01*
X106173Y263759D01*
X106099Y263822D01*
X106023Y263881D01*
X105945Y263938D01*
X105865Y263992D01*
X105782Y264042D01*
X105698Y264089D01*
X105611Y264132D01*
X105523Y264172D01*
X105434Y264208D01*
X105343Y264241D01*
X105251Y264270D01*
X105157Y264295D01*
X105063Y264316D01*
X104968Y264334D01*
X104872Y264347D01*
X104776Y264357D01*
X104680Y264363D01*
X104583Y264365D01*
X106311Y263624D02*
X111250Y259426D01*
X111250Y264365D01*
X85850Y41192D02*
X76960Y41192D01*
X85850Y40205D02*
X85850Y42180D01*
X76960Y42180D02*
X76960Y40205D01*
X79429Y46038D02*
X83381Y46038D01*
X79429Y46039D02*
X79331Y46041D01*
X79233Y46047D01*
X79135Y46057D01*
X79038Y46070D01*
X78941Y46088D01*
X78845Y46109D01*
X78751Y46134D01*
X78657Y46163D01*
X78564Y46195D01*
X78473Y46232D01*
X78383Y46271D01*
X78295Y46315D01*
X78209Y46362D01*
X78124Y46412D01*
X78042Y46465D01*
X77962Y46522D01*
X77884Y46582D01*
X77809Y46645D01*
X77736Y46711D01*
X77666Y46780D01*
X77599Y46851D01*
X77534Y46925D01*
X77473Y47002D01*
X77414Y47081D01*
X77359Y47162D01*
X77307Y47245D01*
X77259Y47331D01*
X77214Y47418D01*
X77172Y47507D01*
X77134Y47597D01*
X77100Y47689D01*
X77069Y47782D01*
X77042Y47877D01*
X77019Y47972D01*
X76999Y48069D01*
X76984Y48165D01*
X76972Y48263D01*
X76964Y48361D01*
X76960Y48459D01*
X76960Y48557D01*
X76964Y48655D01*
X76972Y48753D01*
X76984Y48851D01*
X76999Y48947D01*
X77019Y49044D01*
X77042Y49139D01*
X77069Y49234D01*
X77100Y49327D01*
X77134Y49419D01*
X77172Y49509D01*
X77214Y49598D01*
X77259Y49685D01*
X77307Y49771D01*
X77359Y49854D01*
X77414Y49935D01*
X77473Y50014D01*
X77534Y50091D01*
X77599Y50165D01*
X77666Y50236D01*
X77736Y50305D01*
X77809Y50371D01*
X77884Y50434D01*
X77962Y50494D01*
X78042Y50551D01*
X78124Y50604D01*
X78209Y50654D01*
X78295Y50701D01*
X78383Y50745D01*
X78473Y50784D01*
X78564Y50821D01*
X78657Y50853D01*
X78751Y50882D01*
X78845Y50907D01*
X78941Y50928D01*
X79038Y50946D01*
X79135Y50959D01*
X79233Y50969D01*
X79331Y50975D01*
X79429Y50977D01*
X83381Y50977D01*
X83479Y50975D01*
X83577Y50969D01*
X83675Y50959D01*
X83772Y50946D01*
X83869Y50928D01*
X83965Y50907D01*
X84059Y50882D01*
X84153Y50853D01*
X84246Y50821D01*
X84337Y50784D01*
X84427Y50745D01*
X84515Y50701D01*
X84601Y50654D01*
X84686Y50604D01*
X84768Y50551D01*
X84848Y50494D01*
X84926Y50434D01*
X85001Y50371D01*
X85074Y50305D01*
X85144Y50236D01*
X85211Y50165D01*
X85276Y50091D01*
X85337Y50014D01*
X85396Y49935D01*
X85451Y49854D01*
X85503Y49771D01*
X85551Y49685D01*
X85596Y49598D01*
X85638Y49509D01*
X85676Y49419D01*
X85710Y49327D01*
X85741Y49234D01*
X85768Y49139D01*
X85791Y49044D01*
X85811Y48947D01*
X85826Y48851D01*
X85838Y48753D01*
X85846Y48655D01*
X85850Y48557D01*
X85850Y48459D01*
X85846Y48361D01*
X85838Y48263D01*
X85826Y48165D01*
X85811Y48069D01*
X85791Y47972D01*
X85768Y47877D01*
X85741Y47782D01*
X85710Y47689D01*
X85676Y47597D01*
X85638Y47507D01*
X85596Y47418D01*
X85551Y47331D01*
X85503Y47245D01*
X85451Y47162D01*
X85396Y47081D01*
X85337Y47002D01*
X85276Y46925D01*
X85211Y46851D01*
X85144Y46780D01*
X85074Y46711D01*
X85001Y46645D01*
X84926Y46582D01*
X84848Y46522D01*
X84768Y46465D01*
X84686Y46412D01*
X84601Y46362D01*
X84515Y46315D01*
X84427Y46271D01*
X84337Y46232D01*
X84246Y46195D01*
X84153Y46163D01*
X84059Y46134D01*
X83965Y46109D01*
X83869Y46088D01*
X83772Y46070D01*
X83675Y46057D01*
X83577Y46047D01*
X83479Y46041D01*
X83381Y46039D01*
X78936Y55182D02*
X76960Y57652D01*
X85850Y57652D01*
X85850Y60121D02*
X85850Y55182D01*
X85850Y64326D02*
X85850Y67289D01*
X85848Y67378D01*
X85842Y67466D01*
X85832Y67554D01*
X85818Y67642D01*
X85800Y67729D01*
X85779Y67815D01*
X85753Y67900D01*
X85724Y67983D01*
X85691Y68066D01*
X85654Y68146D01*
X85614Y68225D01*
X85570Y68302D01*
X85523Y68378D01*
X85473Y68450D01*
X85419Y68521D01*
X85362Y68589D01*
X85302Y68655D01*
X85240Y68717D01*
X85174Y68777D01*
X85106Y68834D01*
X85035Y68888D01*
X84963Y68938D01*
X84888Y68985D01*
X84810Y69029D01*
X84731Y69069D01*
X84651Y69106D01*
X84568Y69139D01*
X84485Y69168D01*
X84400Y69194D01*
X84314Y69215D01*
X84227Y69233D01*
X84139Y69247D01*
X84051Y69257D01*
X83963Y69263D01*
X83874Y69265D01*
X82887Y69265D01*
X82801Y69263D01*
X82715Y69257D01*
X82629Y69248D01*
X82544Y69235D01*
X82459Y69218D01*
X82376Y69198D01*
X82293Y69174D01*
X82211Y69146D01*
X82131Y69115D01*
X82052Y69080D01*
X81975Y69042D01*
X81899Y69000D01*
X81825Y68956D01*
X81754Y68908D01*
X81684Y68857D01*
X81617Y68803D01*
X81552Y68746D01*
X81490Y68686D01*
X81430Y68624D01*
X81373Y68559D01*
X81319Y68492D01*
X81268Y68422D01*
X81220Y68351D01*
X81176Y68277D01*
X81134Y68201D01*
X81096Y68124D01*
X81061Y68045D01*
X81030Y67965D01*
X81002Y67883D01*
X80978Y67800D01*
X80958Y67717D01*
X80941Y67632D01*
X80928Y67547D01*
X80919Y67461D01*
X80913Y67375D01*
X80911Y67289D01*
X80911Y64326D01*
X76960Y64326D01*
X76960Y69265D01*
D15*
X-386770Y10000D02*
X543230Y10000D01*
X-386770Y10000D02*
X-386770Y290000D01*
X543230Y290000D01*
X543230Y10000D01*
D10*
X123344Y306323D02*
X123344Y311177D01*
X123343Y311177D02*
X123345Y311285D01*
X123351Y311393D01*
X123360Y311501D01*
X123374Y311609D01*
X123391Y311716D01*
X123412Y311822D01*
X123437Y311927D01*
X123466Y312032D01*
X123498Y312135D01*
X123534Y312237D01*
X123574Y312338D01*
X123617Y312437D01*
X123664Y312535D01*
X123714Y312631D01*
X123768Y312725D01*
X123825Y312817D01*
X123885Y312907D01*
X123948Y312995D01*
X124015Y313081D01*
X124084Y313164D01*
X124156Y313244D01*
X124232Y313322D01*
X124310Y313398D01*
X124390Y313470D01*
X124473Y313539D01*
X124559Y313606D01*
X124647Y313669D01*
X124737Y313729D01*
X124829Y313786D01*
X124923Y313840D01*
X125019Y313890D01*
X125117Y313937D01*
X125216Y313980D01*
X125317Y314020D01*
X125419Y314056D01*
X125522Y314088D01*
X125627Y314117D01*
X125732Y314142D01*
X125838Y314163D01*
X125945Y314180D01*
X126053Y314194D01*
X126161Y314203D01*
X126269Y314209D01*
X126377Y314211D01*
X126485Y314209D01*
X126593Y314203D01*
X126701Y314194D01*
X126809Y314180D01*
X126916Y314163D01*
X127022Y314142D01*
X127127Y314117D01*
X127232Y314088D01*
X127335Y314056D01*
X127437Y314020D01*
X127538Y313980D01*
X127637Y313937D01*
X127735Y313890D01*
X127831Y313840D01*
X127925Y313786D01*
X128017Y313729D01*
X128107Y313669D01*
X128195Y313606D01*
X128281Y313539D01*
X128364Y313470D01*
X128444Y313398D01*
X128522Y313322D01*
X128598Y313244D01*
X128670Y313164D01*
X128739Y313081D01*
X128806Y312995D01*
X128869Y312907D01*
X128929Y312817D01*
X128986Y312725D01*
X129040Y312631D01*
X129090Y312535D01*
X129137Y312437D01*
X129180Y312338D01*
X129220Y312237D01*
X129256Y312135D01*
X129288Y312032D01*
X129317Y311927D01*
X129342Y311822D01*
X129363Y311716D01*
X129380Y311609D01*
X129394Y311501D01*
X129403Y311393D01*
X129409Y311285D01*
X129411Y311177D01*
X129411Y306323D01*
X129409Y306215D01*
X129403Y306107D01*
X129394Y305999D01*
X129380Y305891D01*
X129363Y305784D01*
X129342Y305678D01*
X129317Y305573D01*
X129288Y305468D01*
X129256Y305365D01*
X129220Y305263D01*
X129180Y305162D01*
X129137Y305063D01*
X129090Y304965D01*
X129040Y304869D01*
X128986Y304775D01*
X128929Y304683D01*
X128869Y304593D01*
X128806Y304505D01*
X128739Y304419D01*
X128670Y304336D01*
X128598Y304256D01*
X128522Y304178D01*
X128444Y304102D01*
X128364Y304030D01*
X128281Y303961D01*
X128195Y303894D01*
X128107Y303831D01*
X128017Y303771D01*
X127925Y303714D01*
X127831Y303660D01*
X127735Y303610D01*
X127637Y303563D01*
X127538Y303520D01*
X127437Y303480D01*
X127335Y303444D01*
X127232Y303412D01*
X127127Y303383D01*
X127022Y303358D01*
X126916Y303337D01*
X126809Y303320D01*
X126701Y303306D01*
X126593Y303297D01*
X126485Y303291D01*
X126377Y303289D01*
X126269Y303291D01*
X126161Y303297D01*
X126053Y303306D01*
X125945Y303320D01*
X125838Y303337D01*
X125732Y303358D01*
X125627Y303383D01*
X125522Y303412D01*
X125419Y303444D01*
X125317Y303480D01*
X125216Y303520D01*
X125117Y303563D01*
X125019Y303610D01*
X124923Y303660D01*
X124829Y303714D01*
X124737Y303771D01*
X124647Y303831D01*
X124559Y303894D01*
X124473Y303961D01*
X124390Y304030D01*
X124310Y304102D01*
X124232Y304178D01*
X124156Y304256D01*
X124084Y304336D01*
X124015Y304419D01*
X123948Y304505D01*
X123885Y304593D01*
X123825Y304683D01*
X123768Y304775D01*
X123714Y304869D01*
X123664Y304965D01*
X123617Y305063D01*
X123574Y305162D01*
X123534Y305263D01*
X123498Y305365D01*
X123466Y305468D01*
X123437Y305573D01*
X123412Y305678D01*
X123391Y305784D01*
X123374Y305891D01*
X123360Y305999D01*
X123351Y306107D01*
X123345Y306215D01*
X123343Y306323D01*
X135186Y303289D02*
X135186Y314211D01*
X135186Y303289D02*
X140040Y303289D01*
X145427Y303289D02*
X145427Y314211D01*
X144214Y303289D02*
X146641Y303289D01*
X146641Y314211D02*
X144214Y314211D01*
X152074Y314211D02*
X152074Y303289D01*
X155714Y308143D02*
X152074Y314211D01*
X155714Y308143D02*
X159355Y314211D01*
X159355Y303289D01*
X165665Y303289D02*
X170520Y303289D01*
X165665Y303289D02*
X165665Y314211D01*
X170520Y314211D01*
X169306Y309357D02*
X165665Y309357D01*
X174553Y303289D02*
X181834Y314211D01*
X174553Y314211D02*
X181834Y303289D01*
X193299Y303289D02*
X193299Y314211D01*
X196333Y314211D01*
X196441Y314209D01*
X196549Y314203D01*
X196657Y314194D01*
X196765Y314180D01*
X196872Y314163D01*
X196978Y314142D01*
X197083Y314117D01*
X197188Y314088D01*
X197291Y314056D01*
X197393Y314020D01*
X197494Y313980D01*
X197593Y313937D01*
X197691Y313890D01*
X197787Y313840D01*
X197881Y313786D01*
X197973Y313729D01*
X198063Y313669D01*
X198151Y313606D01*
X198237Y313539D01*
X198320Y313470D01*
X198400Y313398D01*
X198478Y313322D01*
X198554Y313244D01*
X198626Y313164D01*
X198695Y313081D01*
X198762Y312995D01*
X198825Y312907D01*
X198885Y312817D01*
X198942Y312725D01*
X198996Y312631D01*
X199046Y312535D01*
X199093Y312437D01*
X199136Y312338D01*
X199176Y312237D01*
X199212Y312135D01*
X199244Y312032D01*
X199273Y311927D01*
X199298Y311822D01*
X199319Y311716D01*
X199336Y311609D01*
X199350Y311501D01*
X199359Y311393D01*
X199365Y311285D01*
X199367Y311177D01*
X199365Y311069D01*
X199359Y310961D01*
X199350Y310853D01*
X199336Y310745D01*
X199319Y310638D01*
X199298Y310532D01*
X199273Y310427D01*
X199244Y310322D01*
X199212Y310219D01*
X199176Y310117D01*
X199136Y310016D01*
X199093Y309917D01*
X199046Y309819D01*
X198996Y309723D01*
X198942Y309629D01*
X198885Y309537D01*
X198825Y309447D01*
X198762Y309359D01*
X198695Y309273D01*
X198626Y309190D01*
X198554Y309110D01*
X198478Y309032D01*
X198400Y308956D01*
X198320Y308884D01*
X198237Y308815D01*
X198151Y308748D01*
X198063Y308685D01*
X197973Y308625D01*
X197881Y308568D01*
X197787Y308514D01*
X197691Y308464D01*
X197593Y308417D01*
X197494Y308374D01*
X197393Y308334D01*
X197291Y308298D01*
X197188Y308266D01*
X197083Y308237D01*
X196978Y308212D01*
X196872Y308191D01*
X196765Y308174D01*
X196657Y308160D01*
X196549Y308151D01*
X196441Y308145D01*
X196333Y308143D01*
X193299Y308143D01*
X204115Y306323D02*
X204115Y311177D01*
X204117Y311285D01*
X204123Y311393D01*
X204132Y311501D01*
X204146Y311609D01*
X204163Y311716D01*
X204184Y311822D01*
X204209Y311927D01*
X204238Y312032D01*
X204270Y312135D01*
X204306Y312237D01*
X204346Y312338D01*
X204389Y312437D01*
X204436Y312535D01*
X204486Y312631D01*
X204540Y312725D01*
X204597Y312817D01*
X204657Y312907D01*
X204720Y312995D01*
X204787Y313081D01*
X204856Y313164D01*
X204928Y313244D01*
X205004Y313322D01*
X205082Y313398D01*
X205162Y313470D01*
X205245Y313539D01*
X205331Y313606D01*
X205419Y313669D01*
X205509Y313729D01*
X205601Y313786D01*
X205695Y313840D01*
X205791Y313890D01*
X205889Y313937D01*
X205988Y313980D01*
X206089Y314020D01*
X206191Y314056D01*
X206294Y314088D01*
X206399Y314117D01*
X206504Y314142D01*
X206610Y314163D01*
X206717Y314180D01*
X206825Y314194D01*
X206933Y314203D01*
X207041Y314209D01*
X207149Y314211D01*
X207257Y314209D01*
X207365Y314203D01*
X207473Y314194D01*
X207581Y314180D01*
X207688Y314163D01*
X207794Y314142D01*
X207899Y314117D01*
X208004Y314088D01*
X208107Y314056D01*
X208209Y314020D01*
X208310Y313980D01*
X208409Y313937D01*
X208507Y313890D01*
X208603Y313840D01*
X208697Y313786D01*
X208789Y313729D01*
X208879Y313669D01*
X208967Y313606D01*
X209053Y313539D01*
X209136Y313470D01*
X209216Y313398D01*
X209294Y313322D01*
X209370Y313244D01*
X209442Y313164D01*
X209511Y313081D01*
X209578Y312995D01*
X209641Y312907D01*
X209701Y312817D01*
X209758Y312725D01*
X209812Y312631D01*
X209862Y312535D01*
X209909Y312437D01*
X209952Y312338D01*
X209992Y312237D01*
X210028Y312135D01*
X210060Y312032D01*
X210089Y311927D01*
X210114Y311822D01*
X210135Y311716D01*
X210152Y311609D01*
X210166Y311501D01*
X210175Y311393D01*
X210181Y311285D01*
X210183Y311177D01*
X210183Y306323D01*
X210181Y306215D01*
X210175Y306107D01*
X210166Y305999D01*
X210152Y305891D01*
X210135Y305784D01*
X210114Y305678D01*
X210089Y305573D01*
X210060Y305468D01*
X210028Y305365D01*
X209992Y305263D01*
X209952Y305162D01*
X209909Y305063D01*
X209862Y304965D01*
X209812Y304869D01*
X209758Y304775D01*
X209701Y304683D01*
X209641Y304593D01*
X209578Y304505D01*
X209511Y304419D01*
X209442Y304336D01*
X209370Y304256D01*
X209294Y304178D01*
X209216Y304102D01*
X209136Y304030D01*
X209053Y303961D01*
X208967Y303894D01*
X208879Y303831D01*
X208789Y303771D01*
X208697Y303714D01*
X208603Y303660D01*
X208507Y303610D01*
X208409Y303563D01*
X208310Y303520D01*
X208209Y303480D01*
X208107Y303444D01*
X208004Y303412D01*
X207899Y303383D01*
X207794Y303358D01*
X207688Y303337D01*
X207581Y303320D01*
X207473Y303306D01*
X207365Y303297D01*
X207257Y303291D01*
X207149Y303289D01*
X207041Y303291D01*
X206933Y303297D01*
X206825Y303306D01*
X206717Y303320D01*
X206610Y303337D01*
X206504Y303358D01*
X206399Y303383D01*
X206294Y303412D01*
X206191Y303444D01*
X206089Y303480D01*
X205988Y303520D01*
X205889Y303563D01*
X205791Y303610D01*
X205695Y303660D01*
X205601Y303714D01*
X205509Y303771D01*
X205419Y303831D01*
X205331Y303894D01*
X205245Y303961D01*
X205162Y304030D01*
X205082Y304102D01*
X205004Y304178D01*
X204928Y304256D01*
X204856Y304336D01*
X204787Y304419D01*
X204720Y304505D01*
X204657Y304593D01*
X204597Y304683D01*
X204540Y304775D01*
X204486Y304869D01*
X204436Y304965D01*
X204389Y305063D01*
X204346Y305162D01*
X204306Y305263D01*
X204270Y305365D01*
X204238Y305468D01*
X204209Y305573D01*
X204184Y305678D01*
X204163Y305784D01*
X204146Y305891D01*
X204132Y305999D01*
X204123Y306107D01*
X204117Y306215D01*
X204115Y306323D01*
X215957Y303289D02*
X220812Y303289D01*
X215957Y303289D02*
X215957Y314211D01*
X220812Y314211D01*
X219598Y309357D02*
X215957Y309357D01*
X232295Y314211D02*
X232295Y303289D01*
X231082Y303289D02*
X233509Y303289D01*
X233509Y314211D02*
X231082Y314211D01*
X241665Y303289D02*
X241763Y303291D01*
X241860Y303297D01*
X241958Y303307D01*
X242054Y303320D01*
X242150Y303338D01*
X242246Y303360D01*
X242340Y303385D01*
X242434Y303414D01*
X242526Y303447D01*
X242616Y303483D01*
X242705Y303523D01*
X242793Y303567D01*
X242879Y303614D01*
X242962Y303665D01*
X243044Y303719D01*
X243123Y303776D01*
X243200Y303836D01*
X243274Y303899D01*
X243346Y303966D01*
X243415Y304035D01*
X243482Y304107D01*
X243545Y304181D01*
X243605Y304258D01*
X243662Y304337D01*
X243716Y304419D01*
X243767Y304503D01*
X243814Y304588D01*
X243858Y304676D01*
X243898Y304765D01*
X243934Y304855D01*
X243967Y304947D01*
X243996Y305041D01*
X244021Y305135D01*
X244043Y305231D01*
X244061Y305327D01*
X244074Y305423D01*
X244084Y305521D01*
X244090Y305618D01*
X244092Y305716D01*
X241665Y303289D02*
X241525Y303291D01*
X241386Y303297D01*
X241247Y303306D01*
X241108Y303319D01*
X240969Y303336D01*
X240831Y303357D01*
X240694Y303382D01*
X240557Y303410D01*
X240421Y303442D01*
X240286Y303478D01*
X240152Y303517D01*
X240020Y303560D01*
X239888Y303607D01*
X239758Y303657D01*
X239629Y303711D01*
X239502Y303768D01*
X239376Y303828D01*
X239252Y303892D01*
X239129Y303960D01*
X239009Y304031D01*
X238891Y304104D01*
X238774Y304182D01*
X238660Y304262D01*
X238548Y304345D01*
X238438Y304432D01*
X238331Y304521D01*
X238226Y304613D01*
X238124Y304708D01*
X238025Y304806D01*
X238328Y311784D02*
X238330Y311882D01*
X238336Y311979D01*
X238346Y312077D01*
X238359Y312173D01*
X238377Y312269D01*
X238399Y312365D01*
X238424Y312459D01*
X238453Y312553D01*
X238486Y312645D01*
X238522Y312735D01*
X238562Y312824D01*
X238606Y312912D01*
X238653Y312998D01*
X238704Y313081D01*
X238758Y313163D01*
X238815Y313242D01*
X238875Y313319D01*
X238938Y313393D01*
X239005Y313465D01*
X239074Y313534D01*
X239146Y313601D01*
X239220Y313664D01*
X239297Y313724D01*
X239376Y313781D01*
X239458Y313835D01*
X239542Y313886D01*
X239627Y313933D01*
X239715Y313977D01*
X239804Y314017D01*
X239894Y314053D01*
X239986Y314086D01*
X240080Y314115D01*
X240174Y314140D01*
X240270Y314162D01*
X240366Y314180D01*
X240462Y314193D01*
X240560Y314203D01*
X240657Y314209D01*
X240755Y314211D01*
X240888Y314209D01*
X241021Y314203D01*
X241154Y314193D01*
X241286Y314180D01*
X241418Y314162D01*
X241550Y314141D01*
X241680Y314116D01*
X241810Y314087D01*
X241939Y314054D01*
X242067Y314018D01*
X242194Y313977D01*
X242320Y313934D01*
X242444Y313886D01*
X242567Y313835D01*
X242688Y313780D01*
X242808Y313722D01*
X242926Y313660D01*
X243042Y313595D01*
X243156Y313526D01*
X243268Y313454D01*
X243378Y313379D01*
X243486Y313301D01*
X239542Y309660D02*
X239458Y309712D01*
X239376Y309767D01*
X239297Y309825D01*
X239220Y309886D01*
X239145Y309951D01*
X239073Y310018D01*
X239004Y310088D01*
X238938Y310161D01*
X238875Y310236D01*
X238814Y310314D01*
X238757Y310394D01*
X238703Y310477D01*
X238653Y310561D01*
X238606Y310647D01*
X238562Y310736D01*
X238522Y310826D01*
X238485Y310917D01*
X238453Y311010D01*
X238424Y311104D01*
X238398Y311199D01*
X238377Y311295D01*
X238359Y311392D01*
X238346Y311489D01*
X238336Y311587D01*
X238330Y311686D01*
X238328Y311784D01*
X242878Y307840D02*
X242962Y307788D01*
X243044Y307733D01*
X243123Y307675D01*
X243200Y307614D01*
X243275Y307549D01*
X243347Y307482D01*
X243416Y307412D01*
X243482Y307339D01*
X243545Y307264D01*
X243606Y307186D01*
X243663Y307106D01*
X243717Y307023D01*
X243767Y306939D01*
X243814Y306853D01*
X243858Y306764D01*
X243898Y306674D01*
X243935Y306583D01*
X243967Y306490D01*
X243996Y306396D01*
X244022Y306301D01*
X244043Y306205D01*
X244061Y306108D01*
X244074Y306011D01*
X244084Y305913D01*
X244090Y305814D01*
X244092Y305716D01*
X242878Y307840D02*
X239541Y309660D01*
X249073Y311177D02*
X249073Y306323D01*
X249073Y311177D02*
X249075Y311285D01*
X249081Y311393D01*
X249090Y311501D01*
X249104Y311609D01*
X249121Y311716D01*
X249142Y311822D01*
X249167Y311927D01*
X249196Y312032D01*
X249228Y312135D01*
X249264Y312237D01*
X249304Y312338D01*
X249347Y312437D01*
X249394Y312535D01*
X249444Y312631D01*
X249498Y312725D01*
X249555Y312817D01*
X249615Y312907D01*
X249678Y312995D01*
X249745Y313081D01*
X249814Y313164D01*
X249886Y313244D01*
X249962Y313322D01*
X250040Y313398D01*
X250120Y313470D01*
X250203Y313539D01*
X250289Y313606D01*
X250377Y313669D01*
X250467Y313729D01*
X250559Y313786D01*
X250653Y313840D01*
X250749Y313890D01*
X250847Y313937D01*
X250946Y313980D01*
X251047Y314020D01*
X251149Y314056D01*
X251252Y314088D01*
X251357Y314117D01*
X251462Y314142D01*
X251568Y314163D01*
X251675Y314180D01*
X251783Y314194D01*
X251891Y314203D01*
X251999Y314209D01*
X252107Y314211D01*
X252215Y314209D01*
X252323Y314203D01*
X252431Y314194D01*
X252539Y314180D01*
X252646Y314163D01*
X252752Y314142D01*
X252857Y314117D01*
X252962Y314088D01*
X253065Y314056D01*
X253167Y314020D01*
X253268Y313980D01*
X253367Y313937D01*
X253465Y313890D01*
X253561Y313840D01*
X253655Y313786D01*
X253747Y313729D01*
X253837Y313669D01*
X253925Y313606D01*
X254011Y313539D01*
X254094Y313470D01*
X254174Y313398D01*
X254252Y313322D01*
X254328Y313244D01*
X254400Y313164D01*
X254469Y313081D01*
X254536Y312995D01*
X254599Y312907D01*
X254659Y312817D01*
X254716Y312725D01*
X254770Y312631D01*
X254820Y312535D01*
X254867Y312437D01*
X254910Y312338D01*
X254950Y312237D01*
X254986Y312135D01*
X255018Y312032D01*
X255047Y311927D01*
X255072Y311822D01*
X255093Y311716D01*
X255110Y311609D01*
X255124Y311501D01*
X255133Y311393D01*
X255139Y311285D01*
X255141Y311177D01*
X255141Y306323D01*
X255139Y306215D01*
X255133Y306107D01*
X255124Y305999D01*
X255110Y305891D01*
X255093Y305784D01*
X255072Y305678D01*
X255047Y305573D01*
X255018Y305468D01*
X254986Y305365D01*
X254950Y305263D01*
X254910Y305162D01*
X254867Y305063D01*
X254820Y304965D01*
X254770Y304869D01*
X254716Y304775D01*
X254659Y304683D01*
X254599Y304593D01*
X254536Y304505D01*
X254469Y304419D01*
X254400Y304336D01*
X254328Y304256D01*
X254252Y304178D01*
X254174Y304102D01*
X254094Y304030D01*
X254011Y303961D01*
X253925Y303894D01*
X253837Y303831D01*
X253747Y303771D01*
X253655Y303714D01*
X253561Y303660D01*
X253465Y303610D01*
X253367Y303563D01*
X253268Y303520D01*
X253167Y303480D01*
X253065Y303444D01*
X252962Y303412D01*
X252857Y303383D01*
X252752Y303358D01*
X252646Y303337D01*
X252539Y303320D01*
X252431Y303306D01*
X252323Y303297D01*
X252215Y303291D01*
X252107Y303289D01*
X251999Y303291D01*
X251891Y303297D01*
X251783Y303306D01*
X251675Y303320D01*
X251568Y303337D01*
X251462Y303358D01*
X251357Y303383D01*
X251252Y303412D01*
X251149Y303444D01*
X251047Y303480D01*
X250946Y303520D01*
X250847Y303563D01*
X250749Y303610D01*
X250653Y303660D01*
X250559Y303714D01*
X250467Y303771D01*
X250377Y303831D01*
X250289Y303894D01*
X250203Y303961D01*
X250120Y304030D01*
X250040Y304102D01*
X249962Y304178D01*
X249886Y304256D01*
X249814Y304336D01*
X249745Y304419D01*
X249678Y304505D01*
X249615Y304593D01*
X249555Y304683D01*
X249498Y304775D01*
X249444Y304869D01*
X249394Y304965D01*
X249347Y305063D01*
X249304Y305162D01*
X249264Y305263D01*
X249228Y305365D01*
X249196Y305468D01*
X249167Y305573D01*
X249142Y305678D01*
X249121Y305784D01*
X249104Y305891D01*
X249090Y305999D01*
X249081Y306107D01*
X249075Y306215D01*
X249073Y306323D01*
M02*
